<?xml version="1.0" encoding="utf-8"?>
<!-- Generator: Adobe Illustrator 27.0.0, SVG Export Plug-In . SVG Version: 6.00 Build 0)  -->
<svg version="1.1" id="Breeze_Illustration_02" xmlns="http://www.w3.org/2000/svg" xmlns:xlink="http://www.w3.org/1999/xlink"
	 x="0px" y="0px" viewBox="0 0 720 540.9" style="enable-background:new 0 0 720 540.9;" xml:space="preserve">
<style type="text/css">
	.st0{fill:#FFFFFF;}
	.st1{fill:#E4F7F6;}
	.st2{fill:#C5EAE9;}
	.st3{fill:#8BC6C4;}
	.st4{fill:#FFC1AB;}
	.st5{fill:none;stroke:#000000;stroke-width:0.8;stroke-miterlimit:10;}
	.st6{clip-path:url(#SVGID_00000152947246269256086580000001382404665492403341_);fill:#CE8A72;}
	.st7{fill:#8DE0DC;}
	.st8{fill:none;stroke:#FFFFFF;stroke-width:0.8;stroke-linecap:round;stroke-linejoin:round;stroke-miterlimit:10;}
	.st9{fill:#00ACAC;}
	.st10{fill:#EDF9F9;}
	.st11{fill:none;stroke:#00A1A1;stroke-width:0.8;stroke-linecap:round;stroke-linejoin:round;stroke-miterlimit:10;}
	.st12{fill:#005150;}
	.st13{fill:#00A1A1;}
	.st14{opacity:0.8;fill:#005150;}
	.st15{fill:#F0F7F9;}
	.st16{fill:none;stroke:#F9F9F9;stroke-linecap:round;stroke-linejoin:round;stroke-miterlimit:10;}
	.st17{fill:#B0DEF2;}
	.st18{clip-path:url(#SVGID_00000052785298533802603630000014406934239093359782_);fill:#005150;}
	.st19{fill:none;stroke:#FFFFFF;stroke-width:0.8;stroke-miterlimit:10;}
	.st20{clip-path:url(#SVGID_00000039116264354300019040000011903788594994820027_);}
	.st21{fill:#023465;}
	.st22{fill:#FFCDA4;}
	.st23{clip-path:url(#SVGID_00000111884542019991214340000006127223342606364307_);fill:#ED6B3F;}
	.st24{fill:#B00035;}
	.st25{fill:#002E57;}
	.st26{clip-path:url(#SVGID_00000108279429031958321280000018394109912420516743_);}
	.st27{fill:#DEEFF8;}
	.st28{clip-path:url(#SVGID_00000147905823934749712390000010963876593387846075_);fill:#ED6B3F;}
	.st29{fill:#AF3601;}
	.st30{fill:#485765;}
	.st31{fill:#B9C8D4;}
	.st32{fill:none;stroke:#283643;stroke-width:0.8;stroke-miterlimit:10;}
	.st33{fill:none;stroke:#283643;stroke-width:0.8;stroke-miterlimit:10;stroke-dasharray:10.0887,10.0887;}
	.st34{fill:#D1A586;}
	.st35{clip-path:url(#SVGID_00000137827914231486169510000010903016842727355312_);fill:#A07A60;}
	.st36{clip-path:url(#SVGID_00000034086168527913418600000001630402418098256036_);fill:#005150;}
	.st37{clip-path:url(#SVGID_00000144319692683637003060000003889840485115218589_);fill:#A07A60;}
	.st38{fill:#0BAFAE;}
	.st39{clip-path:url(#SVGID_00000155144225912856141250000006634803615607262387_);fill:#FF004C;}
	.st40{fill:none;stroke:#A07A60;stroke-miterlimit:10;}
	.st41{fill:#300044;}
	.st42{clip-path:url(#SVGID_00000093863451065404153530000007750241771092142271_);fill:#230133;}
	.st43{clip-path:url(#SVGID_00000132797013751535738780000000587231957167335832_);fill:#DB034B;}
	.st44{fill:#0A6FC0;}
	.st45{fill:#FF004C;}
	.st46{clip-path:url(#SVGID_00000132071614597996848250000017972400483908944266_);fill:#C40544;}
	.st47{clip-path:url(#SVGID_00000132071614597996848250000017972400483908944266_);fill:#9B0235;}
	.st48{fill:#283643;}
	.st49{clip-path:url(#SVGID_00000181069248158963964040000017082591392977083316_);fill:#1B2730;}
	.st50{clip-path:url(#SVGID_00000161625786710039141880000015463767360080519055_);fill:#C40544;}
	
		.st51{clip-path:url(#SVGID_00000161625786710039141880000015463767360080519055_);fill:none;stroke:#B00035;stroke-width:0.8;stroke-linecap:round;stroke-linejoin:round;stroke-miterlimit:10;}
	
		.st52{clip-path:url(#SVGID_00000161625786710039141880000015463767360080519055_);fill:none;stroke:#B00035;stroke-linecap:round;stroke-linejoin:round;stroke-miterlimit:10;}
	.st53{clip-path:url(#SVGID_00000130616095580457962530000010031263761674019715_);fill:#A07A60;}
	.st54{clip-path:url(#SVGID_00000052075313061080198630000009238980906585441693_);fill:#A07A60;}
	.st55{clip-path:url(#SVGID_00000052075313061080198630000009238980906585441693_);fill:#D1A586;}
	.st56{clip-path:url(#SVGID_00000123439929913502015010000006478265686471929216_);fill:#300044;}
	.st57{clip-path:url(#SVGID_00000163775624202408287590000011232408919368971178_);fill:#300044;}
	.st58{clip-path:url(#SVGID_00000121266148226946884590000016493386580837812870_);fill:#A07A60;}
	.st59{fill:#571D7B;}
	.st60{clip-path:url(#SVGID_00000086679964305474081010000011850963563185034682_);fill:#451568;}
	.st61{clip-path:url(#SVGID_00000086679964305474081010000011850963563185034682_);fill:#300044;}
	.st62{opacity:0.8;fill:#00A1A1;}
	.st63{fill:#96A5B3;}
	.st64{clip-path:url(#SVGID_00000041991314291481160590000010104093593792845712_);fill:#879AAA;}
	.st65{clip-path:url(#SVGID_00000043429367991927587790000006811766373503231652_);fill:#879AAA;}
	.st66{clip-path:url(#SVGID_00000077325147198747590690000014323829541159453599_);fill:#ED6B3F;}
	.st67{fill:#280D0D;}
	.st68{clip-path:url(#SVGID_00000174563767620419069690000010013291896669315487_);fill:#3F1B1B;}
	.st69{fill:none;stroke:#F7702D;stroke-width:0.8;stroke-linecap:round;stroke-linejoin:round;stroke-miterlimit:10;}
	.st70{clip-path:url(#SVGID_00000109726510870168921380000006486852492898345376_);fill:#ED6B3F;}
	.st71{clip-path:url(#SVGID_00000161600673034929076440000004760780076899555508_);fill:#ED6B3F;}
	.st72{fill:#FF7140;}
	.st73{clip-path:url(#SVGID_00000003097295997027083610000003237757491335507643_);fill:#AF3601;}
	.st74{fill:#E24210;}
	.st75{clip-path:url(#SVGID_00000043428163656401568840000008612288295124909733_);fill:#AF3601;}
	.st76{clip-path:url(#SVGID_00000129169162197285629330000016306265919823889075_);fill:#ED6B3F;}
	.st77{clip-path:url(#SVGID_00000013894750232163823830000001077336381656217504_);fill:#FFFFFF;}
	.st78{clip-path:url(#SVGID_00000097492531413740625230000005609678469402174635_);fill:#ED6B3F;}
	.st79{clip-path:url(#SVGID_00000083063760667239290510000010347954024212581823_);fill:#FFFFFF;}
	.st80{clip-path:url(#SVGID_00000025417195248420563850000008012639682876352649_);fill:#283643;}
	.st81{clip-path:url(#SVGID_00000025417195248420563850000008012639682876352649_);fill:#B9C8D4;}
	.st82{fill:#FF4E01;}
	.st83{clip-path:url(#SVGID_00000045601173057731707350000004277724285547225004_);fill:#AF3601;}
</style>
<rect id="bg" x="-40.01" y="-29.55" class="st0" width="798.67" height="600"/>
<g id="background">
	<g id="background_3_">
		<path id="background_1_" class="st1" d="M133.38,135.04C157.35,57.92,590.51-78,623.52,131.75
			c28.16-88.37,61.18,12.62,48.55,110.7c-20.17,156.69-37.87,240.83-37.87,240.83L109.42,483L43.84,334.35
			c-23.3-76.08-29.6-153.38,10.64-222.02C70.98,84.17,120.87,85.02,133.38,135.04z"/>
		<circle id="background_2_" class="st2" cx="705.97" cy="123.61" r="9.73"/>
	</g>
	<g id="flowers">
		<path class="st3" d="M30.93,355.79c0,0,42.75-17.34,76.08,45.14c4.14,7.77-0.07,17.43-8.6,19.63c-8.56,2.2-17.14-1.08-24-5.37
			c-7.8-4.87-13.74-12.26-16.8-20.93C54.07,384.23,46.33,367.8,30.93,355.79z"/>
		<path class="st4" d="M82.98,454.88h57.84v24.19c0,9.09-7.37,16.46-16.46,16.46H99.43c-9.09,0-16.46-7.37-16.46-16.46V454.88z"/>
		<g>
			<defs>
				<path id="SVGID_1_" d="M82.98,454.88h57.84v24.19c0,9.09-7.37,16.46-16.46,16.46H99.43c-9.09,0-16.46-7.37-16.46-16.46V454.88z"
					/>
			</defs>
			<clipPath id="SVGID_00000070816637346616947270000012000295375187927426_">
				<use xlink:href="#SVGID_1_"  style="overflow:visible;"/>
			</clipPath>
			<path style="clip-path:url(#SVGID_00000070816637346616947270000012000295375187927426_);fill:#CE8A72;" d="M75.7,453.31v4.56
				h54.19v17.51c0,4.92-1.21,9.77-3.53,14.12l-4.81,9.02l20.84-1.04l2.08-42.73L75.7,453.31z"/>
		</g>
		<path class="st7" d="M79,288.21c0,0,46.86,10.89,35.59,81.21c-1.4,8.74-11.03,14.14-19.58,10.95c-8.58-3.21-13.74-10.9-16.81-18.4
			c-3.5-8.52-3.85-18.01-0.96-26.85C80.58,324.89,84.4,307,79,288.21z"/>
		<path class="st3" d="M118.4,363.08c0,0,13.88-33.22,33.92-28.22c-0.13,25.45,16.08,62.99-26.29,67.42
			C109.9,397.79,118.4,363.08,118.4,363.08z"/>
		<path class="st8" d="M116.33,453.84c-3.13-29.18,25.01-100.05,25.01-100.05"/>
		<path class="st8" d="M86.1,395.48c0,0,25.01,32.31,25.01,58.36"/>
		<path class="st8" d="M101.73,453.84c0,0,9.38-67.74-6.25-114.64"/>
	</g>
	<g>
		<g id="elements4_1_">
			<path class="st2" d="M377.09,418.42H200.65c-4.4,0-8-3.6-8-8V298.53c0-4.4,3.6-8,8-8h176.45c4.4,0,8,3.6,8,8v111.89
				C385.09,414.82,381.49,418.42,377.09,418.42z"/>
			<g>
				<circle class="st9" cx="347.49" cy="330.94" r="17.94"/>
				<g>
					<rect x="339.01" y="325.83" class="st10" width="17.46" height="12.94"/>
					<path class="st11" d="M340.52,328.79c0,0,6.03,6.07,14.44,0.25"/>
				</g>
			</g>
			<rect x="333.69" y="361.98" class="st0" width="28.28" height="5.87"/>
			<rect x="333.69" y="373.98" class="st0" width="28.28" height="5.87"/>
		</g>
	</g>
	<g id="element3">
		<g id="card3_5_">
			<path class="st12" d="M712.45,144.6h-83.57c-5.46,0-8.22,2.76-8.22,6.14v41.19c0,3.38,2.76,6.14,6.14,6.14h6.55
				c0.12,2.21-0.3,9.04-9.48,11.92c0,0,14.62-0.66,13.66-11.92h75.14c3.38,0,6.14-2.76,6.14-6.14v-41.19
				C718.82,147.36,715.58,144.6,712.45,144.6z"/>
		</g>
		<g id="card3_8_">
			<path class="st0" d="M659.13,153.47h-20.78c-4.4,0-7.99,3.6-7.99,7.99v0c0,4.4,3.6,7.99,7.99,7.99h0.75
				c0.04,0.66-0.09,2.7-2.83,3.56c0,0,5.61-0.2,5.33-3.56h17.54c4.4,0,7.99-3.6,7.99-7.99v0
				C667.12,157.07,663.52,153.47,659.13,153.47z"/>
		</g>
		<g id="card3_9_">
			<path class="st13" d="M673.26,171.71h28.08c4.4,0,7.99,3.6,7.99,7.99v0c0,4.4-3.6,7.99-7.99,7.99h-0.75
				c-0.04,0.66,0.09,2.7,2.83,3.56c0,0-5.61-0.2-5.33-3.56h-24.84c-4.4,0-7.99-3.6-7.99-7.99v0
				C665.26,175.31,668.86,171.71,673.26,171.71z"/>
			<circle class="st0" cx="675.98" cy="179.75" r="2.08"/>
			<circle class="st0" cx="687.44" cy="179.75" r="2.08"/>
			<circle class="st0" cx="698.91" cy="179.75" r="2.08"/>
		</g>
	</g>
	<g id="card3_4_">
		<path class="st14" d="M308.89,381.8h1.43c3.38,0,6.14-2.76,6.14-6.14v-41.19c0-3.38-2.76-6.14-6.14-6.14h-92.14
			c-3.38,0-6.14,2.76-6.14,6.14v41.19c0,3.38,2.76,6.14,6.14,6.14C218.19,381.8,308.79,382.34,308.89,381.8z"/>
		<path class="st15" d="M296.14,375.9h1.43c3.38,0,6.14-2.76,6.14-6.14v-41.19c0-3.38-2.76-6.14-6.14-6.14h-85.88
			c-3.38,0-6.14,2.76-6.14,6.14v41.19c0,3.38,2.76,6.14,6.14,6.14C211.69,375.9,296.04,376.44,296.14,375.9z"/>
		<g>
			<g>
				<g>
					<rect x="214.3" y="343.12" class="st9" width="27.63" height="20.47"/>
					<path class="st16" d="M216.35,347.21c0,0,9.65,9.82,22.95,0.61"/>
				</g>
			</g>
			<rect x="254.12" y="343.69" class="st9" width="35.85" height="2.85"/>
			<rect x="254.12" y="352.14" class="st9" width="35.85" height="2.85"/>
			<rect x="254.12" y="362.02" class="st17" width="12.5" height="2.85"/>
		</g>
		<g>
			<defs>
				<path id="SVGID_00000032642836625093146900000000369854872820783291_" d="M296.14,375.9h1.43c3.38,0,6.14-2.76,6.14-6.14v-41.19
					c0-3.38-2.76-6.14-6.14-6.14h-85.88c-3.38,0-6.14,2.76-6.14,6.14v41.19c0,3.38,2.76,6.14,6.14,6.14
					C211.69,375.9,296.04,376.44,296.14,375.9z"/>
			</defs>
			<clipPath id="SVGID_00000110447137411942900310000011260939071617035394_">
				<use xlink:href="#SVGID_00000032642836625093146900000000369854872820783291_"  style="overflow:visible;"/>
			</clipPath>
			
				<rect x="199.18" y="313.95" style="clip-path:url(#SVGID_00000110447137411942900310000011260939071617035394_);fill:#005150;" width="108.39" height="21.89"/>
		</g>
		<circle class="st15" cx="214.79" cy="329.31" r="3.58"/>
		<circle class="st15" cx="225.03" cy="329.31" r="3.58"/>
		<circle class="st15" cx="235.26" cy="329.31" r="3.58"/>
	</g>
	<g id="card3_7_">
		<path class="st14" d="M362.96,178.49h1.85c4.37,0,7.94-3.57,7.94-7.94v-53.28c0-4.37-3.57-7.94-7.94-7.94H253.72
			c-4.37,0-7.94,3.57-7.94,7.94v53.28c0,4.37,3.57,7.94,7.94,7.94C253.72,178.49,362.83,179.19,362.96,178.49z"/>
		<path class="st13" d="M358.46,171.97h1.92c4.52,0,8.22-3.7,8.22-8.22v-55.18c0-4.52-3.7-8.22-8.22-8.22H245.33
			c-4.52,0-8.22,3.7-8.22,8.22v55.18c0,4.52,3.7,8.22,8.22,8.22C245.33,171.97,358.33,172.7,358.46,171.97z"/>
		<g>
			<g>
				<line class="st19" x1="239.89" y1="117.1" x2="366.01" y2="117.1"/>
				<g>
					<circle class="st0" cx="252.6" cy="110.24" r="29.18"/>
					<g>
						<defs>
							<circle id="SVGID_00000103959244952890985530000005682052700521236640_" cx="252.6" cy="110.24" r="23.45"/>
						</defs>
						<clipPath id="SVGID_00000027585869381049309200000006846211466155075238_">
							<use xlink:href="#SVGID_00000103959244952890985530000005682052700521236640_"  style="overflow:visible;"/>
						</clipPath>
						<g style="clip-path:url(#SVGID_00000027585869381049309200000006846211466155075238_);">
							<polygon class="st21" points="271.98,134.91 272.89,127.51 261.82,125.53 244.37,125.4 227.56,127.77 233.81,132.79 							
								"/>
							<path class="st22" d="M246.87,125.35c0,0,6.74,9.68,10,0.22l0.42-6.47h-9.38L246.87,125.35z"/>
							<g>
								<defs>
									<path id="SVGID_00000131362089205886298450000006660489095912273811_" d="M246.87,125.35c0,0,6.74,9.68,10,0.22l0.42-6.47
										h-9.38L246.87,125.35z"/>
								</defs>
								<clipPath id="SVGID_00000049920412265522703010000005890859670195788966_">
									<use xlink:href="#SVGID_00000131362089205886298450000006660489095912273811_"  style="overflow:visible;"/>
								</clipPath>
								<path style="clip-path:url(#SVGID_00000049920412265522703010000005890859670195788966_);fill:#ED6B3F;" d="M246.67,121.14
									c0,0,5.38,3.96,8.51,3.52c4.86-0.69,5.78-4.3,5.78-4.3s-13.2-4.04-13.77-3.78C246.62,116.84,246.67,121.14,246.67,121.14z"
									/>
							</g>
							<path class="st22" d="M263.12,106.38c0.07,0.72,4.89,1.63,2.48,4.75c-2.15,4.04-4.16,3.17-5.04,5.49
								c-1.58,4.17-2.44,5.01-3.26,5.6c-1.7,1.22-3.95,1.41-6.03,1.12c-3.05-0.43-6.51-3.55-7.68-8.05c0,0-4.23-2.67-4.89-6.77
								c-0.24-1.51,0.85-2.21,1.76-2.54c0.07-3.26,0.2-5.99,0.2-5.99l5.19-2.92c0,0,4.17-3.13,5.21-2.08c1.04,1.04,4.17,0,5.21,1.04
								c1.04,1.04,7.7,6.3,7.7,6.3"/>
							<path class="st24" d="M259.09,91.1c-1.39-8.76-21.16-2.79-20.28,9.33l0.41,6.23c0.72-0.56,1.27-0.64,1.27-0.64l1,7.64
								l4.32,7.87c0.61,1.1,1.75,1.81,3,1.85l10.01,0.35c0.47,0.02,0.89-0.28,1.03-0.73c0.43-1.44,1.05-4.69-1.01-7.59
								c-0.62-0.88-1.5-2.24-6.12-2.13c-2.39,0.06-6.18,3.49-6.93,2.88c-3.37-2.72-3.86-6.56-3.89-6.82
								c-0.22-1.93-0.64-5.9-0.6-7.33c0-0.06,0.04-0.15,0.08-0.2c4.48-5.53,3.87-2.16,6.17-2.67c0.89-0.2,2.4-0.24,3.32-0.23
								c12.92,0.23,9.06,2.43,12.74,5.33c-0.08,0.31-0.93,4.1-1.3,5.72c-0.1,0.44-3.83,5.37-3.83,5.37l0.28,4.54l0.86,3.91
								c0,0,1.91-3.65,2.72-6.79c1.24-4.85,1.58-9.96,1.62-9.93c0.29,0.18,0.27,0.16,0.96,0.53
								C264.91,107.58,269.12,92.71,259.09,91.1z"/>
						</g>
					</g>
				</g>
			</g>
			<rect x="302.18" y="128.82" class="st0" width="48.02" height="3.82"/>
			<rect x="302.18" y="140.15" class="st0" width="48.02" height="3.82"/>
			<rect x="302.18" y="153.38" class="st0" width="16.75" height="3.82"/>
		</g>
		<path class="st12" d="M277.78,157.38h-21.51c-2.21,0-4-1.79-4-4v-2.23c0-2.21,1.79-4,4-4h21.51c2.21,0,4,1.79,4,4v2.23
			C281.78,155.59,279.99,157.38,277.78,157.38z"/>
	</g>
	<g id="card3_6_">
		<path class="st14" d="M136.34,229.48h1.85c4.37,0,7.94-3.57,7.94-7.94v-53.28c0-4.37-3.57-7.94-7.94-7.94H27.11
			c-4.37,0-7.94,3.57-7.94,7.94v53.28c0,4.37,3.57,7.94,7.94,7.94C27.11,229.48,136.21,230.18,136.34,229.48z"/>
		<path class="st13" d="M131.56,223.49h1.85c4.37,0,7.94-3.57,7.94-7.94v-53.28c0-4.37-3.57-7.94-7.94-7.94H22.33
			c-4.37,0-7.94,3.57-7.94,7.94v53.28c0,4.37,3.57,7.94,7.94,7.94C22.33,223.49,131.43,224.19,131.56,223.49z"/>
		<g>
			<g>
				<line class="st19" x1="17.08" y1="170.51" x2="138.85" y2="170.51"/>
				<circle class="st25" cx="29.35" cy="160.87" r="28.18"/>
				<g>
					<defs>
						<circle id="SVGID_00000011013570982910764210000009834115876919275406_" cx="29.35" cy="160.87" r="23.43"/>
					</defs>
					<clipPath id="SVGID_00000148658032212005484890000003589617977881737608_">
						<use xlink:href="#SVGID_00000011013570982910764210000009834115876919275406_"  style="overflow:visible;"/>
					</clipPath>
					<g style="clip-path:url(#SVGID_00000148658032212005484890000003589617977881737608_);">
						<polygon class="st27" points="-0.03,176.12 32.44,173.86 63.07,179.77 29.37,188.19 16.87,187.41 						"/>
						<path class="st22" d="M20.98,175.95c0,0,7.3,8.34,10.42-1.04v-5.21h-9.38L20.98,175.95z"/>
						<g>
							<defs>
								<path id="SVGID_00000091737233193318226140000006629241519019289219_" d="M20.98,175.95c0,0,7.3,8.34,10.42-1.04v-5.21
									h-9.38L20.98,175.95z"/>
							</defs>
							<clipPath id="SVGID_00000054259163108976693530000002359749948785044393_">
								<use xlink:href="#SVGID_00000091737233193318226140000006629241519019289219_"  style="overflow:visible;"/>
							</clipPath>
							<path style="clip-path:url(#SVGID_00000054259163108976693530000002359749948785044393_);fill:#ED6B3F;" d="M20.43,168.04
								c0,0,1,4.14,4.17,5.65c3.87,1.84,8.2-0.41,8.2-0.41s2.31-1.84,2.48-2.54c0.17-0.69,1.04-4,1.04-4s-13.46-2-14.68-1.39
								C20.43,165.96,20.43,168.04,20.43,168.04z"/>
						</g>
						<path class="st22" d="M43.09,155.54c0,0-7.03,11.72-9.38,14.07c-1.48,1.48-6,4.48-7.99,3.82
							c-7.12-3.03-13.07-18.46-13.07-18.46l7.3-7.3l9.38-2.08c0,0,6.25,1.04,6.25,2.08C35.59,148.71,43.09,155.54,43.09,155.54z"/>
						<path class="st29" d="M36.97,140.17c7.93,2.43,15.76,9.51,3.52,29.18c-2.47,3.97-3.26,8.34-1.56,16.02
							c-0.32,1.18-8-6.18-7.52-12.55c0.29-3.91,1.46-5.27,3.36-8.77c0.35-0.65,6.9-1.43,5.65-6.25c-0.61-2.34-4.59,2.17-4.26,1.39
							c1.59-4.95-12.25,2.17-11.55-10.16c-2.78-1.13-5.12,4.17-10.16,8.95c-0.24,0.23,2.15,5.25,2.15,5.25l-3.3-2.27
							c-1.2-1.2-1.87-2.82-1.87-4.52C11.41,152.56,15.57,129.92,36.97,140.17z"/>
					</g>
				</g>
			</g>
			<rect x="77.22" y="181.83" class="st0" width="46.37" height="3.68"/>
			<rect x="77.22" y="192.77" class="st0" width="46.37" height="3.68"/>
			<rect x="77.22" y="205.54" class="st0" width="16.17" height="3.68"/>
		</g>
		<path class="st12" d="M53.53,207.99H33.04c-2.21,0-4-1.79-4-4v-1.88c0-2.21,1.79-4,4-4h20.49c2.21,0,4,1.79,4,4v1.88
			C57.53,206.2,55.74,207.99,53.53,207.99z"/>
	</g>
	<g id="element2">
		<g>
			<polygon class="st30" points="427.7,95.21 429.64,79.67 409.25,95.21 408.28,98.12 			"/>
			<polygon class="st31" points="418.96,75.79 381.09,109.78 453.92,96.18 442.26,88.41 411.19,96.18 429.64,79.67 			"/>
		</g>
		<g>
			<g>
				<path class="st32" d="M439.27,83.17c0,0,1.57-0.86,4.4-2.37"/>
				<path class="st33" d="M452.61,76.15c55.54-28.47,257.03-123.3,71.85,101.44"/>
				<path class="st32" d="M521.25,181.47c-1.05,1.27-2.12,2.55-3.2,3.84"/>
			</g>
		</g>
	</g>
	<g id="element1">
		<g>
			<path class="st12" d="M676.45,109.87c-0.54,0-0.97-0.43-0.97-0.97v-4.03c0-0.54,0.43-0.97,0.97-0.97c0.54,0,0.97,0.43,0.97,0.97
				v4.03C677.42,109.44,676.99,109.87,676.45,109.87z"/>
		</g>
		<g>
			<path class="st12" d="M676.45,124.12c-0.54,0-0.97-0.43-0.97-0.97v-4.03c0-0.54,0.43-0.97,0.97-0.97c0.54,0,0.97,0.43,0.97,0.97
				v4.03C677.42,123.68,676.99,124.12,676.45,124.12z"/>
		</g>
		<g>
			<path class="st12" d="M672.04,112.41c-0.17,0-0.33-0.04-0.49-0.13l-3.48-2.03c-0.46-0.27-0.62-0.86-0.35-1.33
				c0.27-0.46,0.87-0.62,1.33-0.35l3.48,2.03c0.46,0.27,0.62,0.86,0.35,1.33C672.7,112.23,672.37,112.41,672.04,112.41z"/>
		</g>
		<g>
			<path class="st12" d="M684.35,119.58c-0.17,0-0.33-0.04-0.49-0.13l-3.49-2.03c-0.46-0.27-0.62-0.86-0.35-1.33
				c0.27-0.46,0.86-0.62,1.33-0.35l3.49,2.03c0.46,0.27,0.62,0.86,0.35,1.33C685.01,119.41,684.68,119.58,684.35,119.58z"/>
		</g>
		<g>
			<path class="st12" d="M668.5,119.48c-0.34,0-0.67-0.18-0.85-0.49c-0.26-0.47-0.1-1.06,0.37-1.32l3.51-1.99
				c0.47-0.26,1.06-0.1,1.32,0.37c0.26,0.47,0.1,1.06-0.37,1.32l-3.51,1.99C668.83,119.44,668.66,119.48,668.5,119.48z"/>
		</g>
		<g>
			<path class="st12" d="M680.9,112.46c-0.34,0-0.67-0.18-0.85-0.49c-0.26-0.47-0.1-1.06,0.37-1.32l3.51-1.99
				c0.47-0.26,1.06-0.1,1.32,0.37c0.26,0.47,0.1,1.06-0.37,1.32l-3.51,1.99C681.23,112.42,681.06,112.46,680.9,112.46z"/>
		</g>
	</g>
	<circle class="st19" cx="19.86" cy="159.49" r="4.69"/>
	<circle class="st19" cx="31.32" cy="159.49" r="4.69"/>
</g>
<g id="woman">
	<path id="elements_17_" class="st2" d="M662.29,506.49c0,5.64-84.31,9.28-163.21,9.28s-142.87-4.57-142.87-10.21
		s63.97-10.21,142.87-10.21S662.29,500.86,662.29,506.49z"/>
	<g id="elements_16_">
		<path class="st34" d="M553.85,328.7c-1.94,0.77-9.33-51.31-14.75-61.06c-2.17,6.5-15.64,45.49-17.72,45.86
			c-13.5,2.39-42.23-41.88-49.49-57.96c-0.97-2.15-3.18-3.44-5.53-3.24c-7.76,0.68-26.27,8.05-26.27,8.05l1.04,1.04l14.59-2.08
			c0,0-2.05,4.99-1.04,5.21c6.35,1.38,14.3,1.72,14.59,3.13c6.9,33.61,32.31,72.95,32.31,72.95l47.94-9.38L553.85,328.7z"/>
		<g>
			<defs>
				<path id="SVGID_00000101816926139196727080000018329598872581211266_" d="M553.85,328.7c-1.94,0.77-9.33-51.31-14.75-61.06
					c-2.17,6.5-15.64,45.49-17.72,45.86c-13.5,2.39-42.23-41.88-49.49-57.96c-0.97-2.15-3.18-3.44-5.53-3.24
					c-7.76,0.68-26.27,8.05-26.27,8.05l1.04,1.04l14.59-2.08c0,0-2.05,4.99-1.04,5.21c6.35,1.38,14.3,1.72,14.59,3.13
					c6.9,33.61,32.31,72.95,32.31,72.95l47.94-9.38L553.85,328.7z"/>
			</defs>
			<clipPath id="SVGID_00000122681722534110027280000017340957070646760843_">
				<use xlink:href="#SVGID_00000101816926139196727080000018329598872581211266_"  style="overflow:visible;"/>
			</clipPath>
			<path style="clip-path:url(#SVGID_00000122681722534110027280000017340957070646760843_);fill:#A07A60;" d="M469.32,260.9
				c0,0,2.06,1.65,0.61,6.77c-1.45,5.12-1.24,3.19-1.5,3.39c-0.26,0.2-2.15,0.85-2.15,0.85s-3.65-2.08-3.84-2.21
				c-0.2-0.13-3.91-4.8-3.91-4.8L469.32,260.9z"/>
		</g>
		<path class="st34" d="M472.18,256.15c-8.27-0.52-12.96,10.14-12.96,10.14l6.69,0.33c1.61-0.44,2.91-1.62,3.5-3.18L472.18,256.15z"
			/>
	</g>
	<g id="elements_15_">
		<path class="st13" d="M641.52,500.93l-24.26-14.29v-95.49h-7.56v95.49l-22.67,14.31c-1.1,0.69-0.61,2.4,0.69,2.4h53.14
			C642.19,503.34,642.66,501.6,641.52,500.93z"/>
		<g>
			<defs>
				<path id="SVGID_00000147939136370362861900000001882636688261926531_" d="M641.52,500.93l-24.26-14.29v-95.49h-7.56v95.49
					l-22.67,14.31c-1.1,0.69-0.61,2.4,0.69,2.4h53.14C642.19,503.34,642.66,501.6,641.52,500.93z"/>
			</defs>
			<clipPath id="SVGID_00000050660243446609722950000014470102132370188975_">
				<use xlink:href="#SVGID_00000147939136370362861900000001882636688261926531_"  style="overflow:visible;"/>
			</clipPath>
			<path style="clip-path:url(#SVGID_00000050660243446609722950000014470102132370188975_);fill:#005150;" d="M622.71,405.55
				c0,0-13.03,11.46-15.81,13.03c-2.78,1.56-5.91-25.19-5.91-25.71s4.86-11.64,4.86-11.64s19.8-3.13,21.36,1.56
				C628.79,387.49,622.71,405.55,622.71,405.55z"/>
			<path style="clip-path:url(#SVGID_00000050660243446609722950000014470102132370188975_);fill:#005150;" d="M641.03,506.38
				c-0.78,0-21.63-17.2-23.77-19.74c-2.29,0.2,8.66-16.73,8.66-16.73s26.84,4.17,27.88,6.77s-1.82,35.96-1.82,35.96L641.03,506.38z"
				/>
		</g>
		<path class="st13" d="M649.44,232.29c0.61,0.01,1.22,0.09,1.81,0.24c38.73,9.89,31.51,106.39,12.41,137.85
			c-32.15,52.95-131.13,30.34-131.13,30.34S587.41,231.23,649.44,232.29z"/>
		<path class="st12" d="M612.18,368.51c0,0,19.95-46.13,21.15-71.91c1.7-36.44-13.01-32.54-24.35-24.97
			c-11.35,7.56-38.73,107-38.73,107S594.92,386.99,612.18,368.51z"/>
	</g>
	<g id="elements_18_">
		<g>
			<path class="st34" d="M570.23,237.6c1.02-11.26-4.19-13.35-4.19-13.35s19.86-8.62,18.92-7.68s9.04,24.83,9.04,24.83
				s-15.15,13.26-24.93,14.09c-6.82,0.58-7.1-10.25-10.84-9.75c-2.51,0.33,3.61-2.12,8.25-4.2
				C568.2,240.76,570.06,239.47,570.23,237.6z"/>
			<g>
				<defs>
					<path id="SVGID_00000095329194734155618830000017976149690975696555_" d="M570.23,237.6c1.02-11.26-4.19-13.35-4.19-13.35
						s19.86-8.62,18.92-7.68s9.04,24.83,9.04,24.83s-15.15,13.26-24.93,14.09c-6.82,0.58-7.1-10.25-10.84-9.75
						c-2.51,0.33,3.61-2.12,8.25-4.2C568.2,240.76,570.06,239.47,570.23,237.6z"/>
				</defs>
				<clipPath id="SVGID_00000106110818472111258410000014174289221974886048_">
					<use xlink:href="#SVGID_00000095329194734155618830000017976149690975696555_"  style="overflow:visible;"/>
				</clipPath>
				<path style="clip-path:url(#SVGID_00000106110818472111258410000014174289221974886048_);fill:#A07A60;" d="M579.24,225.69
					c0,0-6.25,5.21-8.95,6.25c0,0,10.15-3.31,11.01-3.69c4.89-2.15,8.53,14.46,8.53,14.46l5.51-2.52l0.52-9.03l-8.25-15.81
					L579.24,225.69z"/>
			</g>
			<path class="st38" d="M590.1,231.83c-5.42,4.33-19.37,5.15-19.89,5.1c-0.61,0.54-0.5,2.06-0.5,2.06s12.94,0.48,21.14-5.5
				C590.88,232.26,590.1,231.83,590.1,231.83z"/>
			<g>
				<defs>
					<path id="SVGID_00000008865301504413103590000003108875292583349941_" d="M590.1,231.83c-5.42,4.33-19.37,5.15-19.89,5.1
						c-0.61,0.54-0.5,2.06-0.5,2.06s12.94,0.48,21.14-5.5C590.88,232.26,590.1,231.83,590.1,231.83z"/>
				</defs>
				<use xlink:href="#SVGID_00000008865301504413103590000003108875292583349941_"  style="overflow:visible;fill:#B00035;"/>
				<clipPath id="SVGID_00000143606389287478770460000006745702431466290862_">
					<use xlink:href="#SVGID_00000008865301504413103590000003108875292583349941_"  style="overflow:visible;"/>
				</clipPath>
				<path style="clip-path:url(#SVGID_00000143606389287478770460000006745702431466290862_);fill:#FF004C;" d="M586.43,232.51
					l1.44,3.38l5.06-2.81l-1.38-2.25c0,0-3.12,0.31-3.25,0.5S586.43,232.51,586.43,232.51z"/>
			</g>
		</g>
		<g>
			<path class="st34" d="M587.38,219.53c3.68-3.87,6.44-8.03,7.13-11.82c1.36-7.48-14.23-26.54-14.23-26.54l-11.81,4.52l-14.59,4.04
				c0,0-1.04,5.86,2.27,11.06c-1.49,2.24-2.83,25.68,6.05,32.98c3.83,0.77,8.97-1.11,16-6.56"/>
			<path class="st40" d="M583.45,209.27c0,0,1.74-4.69,5.82-5.21"/>
			<path class="st41" d="M581.08,207.29c5.22-10.44,17.56-6.19,8.5,4.45l-5.12,4.17c-0.47,4.29-0.31,4.21,7.49,13.01
				c1.7,1.91-6.97,22.96,10.82,25.46c1.93,0.27,14.09,17.63,20.78,10.31c9.76-10.68,10.74-33.15-20.69-46.51
				c-3.42-1.45,3.18-7.06,4.46-10.83c1.15-3.4,2.04-6.85,2.43-10.14c1.26-10.77-2.83-19.93-20.72-20.42
				c3.73-8.2-33.9-11.83-36.88,14.99c-0.13,1.3-1.86,1.05-1.56,3.82c0.55,5.15,4.47,13.6,4.47,13.6s0.09-3.95,0.66-5.39
				c1.87-0.52,1.82-8.99,1.82-8.99s1.13,5.01,8.21,5.47C568.65,197.87,577.84,202.5,581.08,207.29z"/>
			<g>
				<defs>
					<path id="SVGID_00000096042282209243565320000015559713476546602404_" d="M581.08,207.29c5.22-10.44,17.56-6.19,8.5,4.45
						l-5.12,4.17c1.15,2.87-1.31,14.23,7.49,13.01c3.85-0.53,7.13-3.09,8.87-6.57c8-15.92,20.3-44.68-11.8-45.57
						c3.73-8.2-33.9-11.83-36.88,14.99c-0.13,1.3-1.86,1.05-1.56,3.82c0.55,5.15,4.47,13.6,4.47,13.6s0.09-3.95,0.66-5.39
						c1.87-0.52,1.82-8.99,1.82-8.99s1.13,5.01,8.21,5.47C568.65,197.87,577.84,202.5,581.08,207.29z"/>
				</defs>
				<clipPath id="SVGID_00000083801435333770580720000006163726714981887905_">
					<use xlink:href="#SVGID_00000096042282209243565320000015559713476546602404_"  style="overflow:visible;"/>
				</clipPath>
				<path style="clip-path:url(#SVGID_00000083801435333770580720000006163726714981887905_);fill:#230133;" d="M589.45,179.4
					c1.3,0.26,26.37,15.14,2.5,49.52s14.95,1.81,15.99-0.28s27.88-46.12,25.79-45.86s-16.15-11.2-17.72-11.46
					c-1.56-0.26-23.71,3.39-23.71,3.39L589.45,179.4z"/>
			</g>
		</g>
	</g>
	<g id="elements_14_">
		<defs>
			<path id="SVGID_00000175301941762599799970000001783752634874095257_" d="M553.85,328.7c-1.94,0.77-9.33-51.31-14.75-61.06
				c-2.17,6.5-15.64,45.49-17.72,45.86c-13.5,2.39-42.23-41.88-49.49-57.96c-0.97-2.15-3.18-3.44-5.53-3.24
				c-7.76,0.68-26.27,8.05-26.27,8.05l1.04,1.04l14.95-1.35c0,0-2.42,4.26-1.41,4.48c6.35,1.38,14.3,1.72,14.59,3.13
				c6.9,33.61,32.31,72.95,32.31,72.95l47.94-9.38L553.85,328.7z"/>
		</defs>
		<clipPath id="SVGID_00000137835879708412876560000004855422155189177261_">
			<use xlink:href="#SVGID_00000175301941762599799970000001783752634874095257_"  style="overflow:visible;"/>
		</clipPath>
		<path style="clip-path:url(#SVGID_00000137835879708412876560000004855422155189177261_);fill:#DB034B;" d="M509.68,306.06
			c0,0,4.43,16.15,1.56,20.32c-2.87,4.17,4.43,8.08,4.43,8.08l10.68,0.52l6.51-1.3l9.12-37.52c0,0-1.04-12.51-1.82-12.25
			c-0.78,0.26-14.33,5.73-15.11,6.77C524.27,291.73,509.68,306.06,509.68,306.06z"/>
	</g>
	<g id="elements_13_">
		<path class="st44" d="M614.27,353.95l-0.01,1.27C614.26,355.22,615.33,354.72,614.27,353.95z"/>
		<path class="st45" d="M613.17,268.87c-0.47-12.35-7.32-23.57-18.09-29.63c0,0-8.67,4.33-16.26,9.75s-14.52,5.34-16.58-1.52
			c-0.82-2.72-3.97-3.22-5.09-1.73c-12.87,17.16-18.68,26.52-21.67,45.52c-3.25,20.59-4.26,41.94-6.5,56.35
			c68.41,1.33,78.86,3.72,81.36,5.52L613.17,268.87z"/>
		<g>
			<defs>
				<path id="SVGID_00000022543198817751719330000004601351265983633557_" d="M614.7,319.1l-0.17-4.08l0.06-8.6l-1.42-37.56
					c-0.47-12.35-7.32-23.57-18.09-29.63c0,0-8.67,4.33-16.26,9.75s-14.52,5.34-16.58-1.52c-0.82-2.72-3.97-3.22-5.09-1.73
					c-12.87,17.16-18.68,26.52-21.67,45.52c-3.25,20.59-4.26,41.94-6.5,56.35c68.41,1.33,82.79,4.55,85.3,6.34l0.21-31.4
					C614.68,321.44,614.77,320.29,614.7,319.1z"/>
			</defs>
			<clipPath id="SVGID_00000058560249856756563100000001558525665261353862_">
				<use xlink:href="#SVGID_00000022543198817751719330000004601351265983633557_"  style="overflow:visible;"/>
			</clipPath>
			<path style="clip-path:url(#SVGID_00000058560249856756563100000001558525665261353862_);fill:#C40544;" d="M584.98,231.37
				c0,0,23.62,24.67,23.62,38.56c0,13.9-0.52,11.46-0.52,11.46l19.97-5.21c0,0-11.81-31.61-12.85-32.31s-9.38-10.77-9.38-10.77
				L584.98,231.37z"/>
			<path style="clip-path:url(#SVGID_00000058560249856756563100000001558525665261353862_);fill:#9B0235;" d="M586.82,290.15
				c-6.77,26.84-18.43,31.72-18.43,31.72l-50.01,10.41l-4.17,9.38l96.39,0.8l2.87-65.4L586.82,290.15z"/>
		</g>
	</g>
	<path class="st48" d="M581.08,207.29c5.22-10.44,17.56-6.19,8.5,4.45l-5.12,4.17c-0.47,4.29-0.31,4.21,7.49,13.01
		c1.7,1.91-6.97,22.96,10.82,25.46c1.93,0.27,14.09,17.63,20.78,10.31c9.76-10.68,10.74-33.15-20.69-46.51
		c-3.42-1.45,3.18-7.06,4.46-10.83c1.15-3.4,2.04-6.85,2.43-10.14c1.26-10.77-2.83-19.93-20.72-20.42
		c3.73-8.2-33.9-11.83-36.88,14.99c-0.13,1.3-1.86,1.05-1.56,3.82c0.55,5.15,4.47,13.6,4.47,13.6s0.09-3.95,0.66-5.39
		c1.87-0.52,1.82-8.99,1.82-8.99s1.13,5.01,8.21,5.47C568.65,197.87,577.84,202.5,581.08,207.29z"/>
	<g>
		<defs>
			<path id="SVGID_00000097464019378106898790000015816685639940911765_" d="M581.08,207.29c5.22-10.44,17.56-6.19,8.5,4.45
				l-5.12,4.17c1.15,2.87-1.31,14.23,7.49,13.01c3.85-0.53,7.13-3.09,8.87-6.57c8-15.92,20.3-44.68-11.8-45.57
				c3.73-8.2-33.9-11.83-36.88,14.99c-0.13,1.3-1.86,1.05-1.56,3.82c0.55,5.15,4.47,13.6,4.47,13.6s0.09-3.95,0.66-5.39
				c1.87-0.52,1.82-8.99,1.82-8.99s1.13,5.01,8.21,5.47C568.65,197.87,577.84,202.5,581.08,207.29z"/>
		</defs>
		<clipPath id="SVGID_00000031917342968010701620000011684574186612102303_">
			<use xlink:href="#SVGID_00000097464019378106898790000015816685639940911765_"  style="overflow:visible;"/>
		</clipPath>
		<path style="clip-path:url(#SVGID_00000031917342968010701620000011684574186612102303_);fill:#1B2730;" d="M589.45,179.4
			c1.3,0.26,26.37,15.14,2.5,49.52s14.95,1.81,15.99-0.28s27.88-46.12,25.79-45.86s-16.15-11.2-17.72-11.46
			c-1.56-0.26-23.71,3.39-23.71,3.39L589.45,179.4z"/>
	</g>
	<g id="elements_12_">
		<g>
			<path class="st45" d="M575.57,318.35c15.65,16.54,9.01,16.76,9.01,16.76l14.07-0.32c6.13-0.14,11.16-4.91,11.63-11.03l3.25-48.71
				l-27,12.25c0,0-3.39,13.42,0.78,26.32C580.46,313.7,575.57,318.35,575.57,318.35"/>
			<g>
				<defs>
					<path id="SVGID_00000083051211127391555520000007946566409608257206_" d="M575.57,318.35c15.65,16.54,9.01,16.76,9.01,16.76
						l14.07-0.32c6.13-0.14,11.16-4.91,11.63-11.03l3.23-48.75l-26.98,12.29c0,0-3.39,13.42,0.78,26.32
						C580.46,313.7,575.57,318.35,575.57,318.35"/>
				</defs>
				<clipPath id="SVGID_00000000927286953679819390000016943811042203151773_">
					<use xlink:href="#SVGID_00000083051211127391555520000007946566409608257206_"  style="overflow:visible;"/>
				</clipPath>
				<path style="clip-path:url(#SVGID_00000000927286953679819390000016943811042203151773_);fill:#C40544;" d="M574.03,311.97
					c0,0,18.41,14.59,16.33,22.23c-2.08,7.64-16.5-2.95-16.5-2.95l-7.03-17.72L574.03,311.97z"/>
				<path style="clip-path:url(#SVGID_00000000927286953679819390000016943811042203151773_);fill:#C40544;" d="M608.43,276.85
					c0,0-0.19,49.58-6.43,52.14c-6.77,2.78-14.24,4.34-17.37,4c-3.13-0.35-3.99,5.73-3.99,5.73l18.41,0.69
					c0,0,13.03-8.86,13.37-9.38s3.65-25.01,3.65-25.01l0.35-30.92L608.43,276.85z"/>
				
					<path style="clip-path:url(#SVGID_00000000927286953679819390000016943811042203151773_);fill:none;stroke:#B00035;stroke-width:0.8;stroke-linecap:round;stroke-linejoin:round;stroke-miterlimit:10;" d="
					M586.64,288.18c0,0-0.82,4.55-1.38,10"/>
				
					<path style="clip-path:url(#SVGID_00000000927286953679819390000016943811042203151773_);fill:none;stroke:#B00035;stroke-linecap:round;stroke-linejoin:round;stroke-miterlimit:10;" d="
					M576.29,318.39c0,0,6.95-5.04,10.68-4.6"/>
				
					<path style="clip-path:url(#SVGID_00000000927286953679819390000016943811042203151773_);fill:none;stroke:#B00035;stroke-width:0.8;stroke-linecap:round;stroke-linejoin:round;stroke-miterlimit:10;" d="
					M585.47,312.62c0,0,2.33,1.15,4.83,2.77"/>
			</g>
		</g>
		<path class="st34" d="M539.57,324.02l-14.1-3.92c-1.77-0.49-3.67,0.11-4.83,1.54l-10.38,12.77l30.25-2.84l44.07,3.53
			c5.99-0.78-9.01-16.76-9.01-16.76L539.57,324.02z"/>
		<g>
			<defs>
				<path id="SVGID_00000162332477451404435530000005872891025943927961_" d="M539.57,324.02l-14.1-3.92
					c-1.77-0.49-3.67,0.11-4.83,1.54l-10.38,12.77l30.25-2.84l44.07,3.53c5.99-0.78-9.01-16.76-9.01-16.76L539.57,324.02z"/>
			</defs>
			<clipPath id="SVGID_00000114785235957832530640000007611629150122423225_">
				<use xlink:href="#SVGID_00000162332477451404435530000005872891025943927961_"  style="overflow:visible;"/>
			</clipPath>
			<path style="clip-path:url(#SVGID_00000114785235957832530640000007611629150122423225_);fill:#A07A60;" d="M511.54,335.9
				c0,0,22.58-6.25,24.32-6.25c1.74,0,11.12,2.78,11.12,2.78l-18.59,4.52L511.54,335.9z"/>
		</g>
	</g>
	<g id="elements_11_">
		<g>
			<path class="st34" d="M550.08,469.58l-13.56-63.99l-25.53,5.73l27.86,65.77l-1.9,15.56l9.23-5.72l10.99-10.85l-6.54-5.79
				C550.39,470.1,550.21,469.85,550.08,469.58z"/>
			<g>
				<defs>
					<path id="SVGID_00000051373929896416266310000017771277152665215622_" d="M550.08,469.58l-13.56-63.99l-25.53,5.73l27.86,65.77
						l-1.9,15.56l9.23-5.72l10.99-10.85l-6.54-5.79C550.39,470.1,550.21,469.85,550.08,469.58z"/>
				</defs>
				<clipPath id="SVGID_00000158017287928394253230000016237172904217566612_">
					<use xlink:href="#SVGID_00000051373929896416266310000017771277152665215622_"  style="overflow:visible;"/>
				</clipPath>
				<path style="clip-path:url(#SVGID_00000158017287928394253230000016237172904217566612_);fill:#A07A60;" d="M513.07,425.56
					c5.21,6.95,35.43,19.11,35.43,19.11l-9.03-48.98l-28.49,15.63C510.98,411.32,507.85,418.62,513.07,425.56z"/>
				<path style="clip-path:url(#SVGID_00000158017287928394253230000016237172904217566612_);fill:#D1A586;" d="M548.26,459.33
					l1.04,11.46l-4.69,9.9c0,0,8.68-2.78,8.68-4.17c0-1.39,0.52-15.81,0.52-15.81"/>
			</g>
			<g>
				<defs>
					<path id="SVGID_00000068654325292483610930000003436894718681292675_" d="M550.93,470.49c0,0,4.68-2.28,8.19,1.57
						c2.46,2.7,9.04,18.86,9.04,18.86l-1.12,0.7l-9.49-11.37l-12.9,22.99l-17.12,9.68l-1.48-1.69c-0.64-0.83-0.75-1.95-0.29-2.89
						l8.69-8.44l2.9-9.37l2.95-3.85l2.84-6.66L550.93,470.49z"/>
				</defs>
				<use xlink:href="#SVGID_00000068654325292483610930000003436894718681292675_"  style="overflow:visible;fill:#00ACAC;"/>
				<clipPath id="SVGID_00000082356782621127333480000012722678219192764805_">
					<use xlink:href="#SVGID_00000068654325292483610930000003436894718681292675_"  style="overflow:visible;"/>
				</clipPath>
			</g>
			<g>
				<defs>
					<path id="SVGID_00000069363552520886726970000013100584324753158797_" d="M550.93,470.49c0,0,4.68-2.28,8.19,1.57
						c2.46,2.7,9.04,18.86,9.04,18.86l-1.12,0.7l-9.49-11.37l-12.9,22.99l-17.12,9.68l-1.48-1.69c-0.64-0.83-0.75-1.95-0.29-2.89
						l8.69-8.44l2.9-9.37l2.95-3.85l2.84-6.66L550.93,470.49z"/>
				</defs>
				<use xlink:href="#SVGID_00000069363552520886726970000013100584324753158797_"  style="overflow:visible;fill:#571D7B;"/>
				<clipPath id="SVGID_00000083073133472480258040000012474514834756941217_">
					<use xlink:href="#SVGID_00000069363552520886726970000013100584324753158797_"  style="overflow:visible;"/>
				</clipPath>
				<path style="clip-path:url(#SVGID_00000083073133472480258040000012474514834756941217_);fill:#300044;" d="M545.35,472.19
					c0,0,7.95-1.56,11.99,1.3c4.1,2.91,12.51,22.02,12.51,22.02s0.39-19.93-0.26-20.97c-0.65-1.04-12.25-9.64-12.25-9.64
					L545.35,472.19z"/>
			</g>
		</g>
		<g>
			<g>
				<g>
					<defs>
						<path id="SVGID_00000070086864741021604620000014437908266945153456_" d="M491.16,487.54c0,0,3.15,0.91,3.75,6.09
							c0.43,3.63-3.62,20.6-3.62,20.6l-1.32-0.09l-1.1-14.77L465,510.57l-19.56-2.09l-0.22-2.24c-0.04-1.05,0.52-2.02,1.44-2.52
							l11.98-1.81l7.81-5.94l4.63-1.42l6.18-3.76L491.16,487.54z"/>
					</defs>
					<use xlink:href="#SVGID_00000070086864741021604620000014437908266945153456_"  style="overflow:visible;fill:#00ACAC;"/>
					<clipPath id="SVGID_00000124848197563890277450000017901841090594726324_">
						<use xlink:href="#SVGID_00000070086864741021604620000014437908266945153456_"  style="overflow:visible;"/>
					</clipPath>
				</g>
				<g>
					<g>
						<defs>
							<path id="SVGID_00000029760421227833531420000016095504919459766975_" d="M491.16,487.54c0,0,3.15,0.91,3.75,6.09
								c0.43,3.63-3.62,20.6-3.62,20.6l-1.32-0.09l-1.1-14.77L465,510.57l-19.56-2.09l-0.22-2.24c-0.04-1.05,0.52-2.02,1.44-2.52
								l11.98-1.81l7.81-5.94l4.63-1.42l6.18-3.76L491.16,487.54z"/>
						</defs>
						<use xlink:href="#SVGID_00000029760421227833531420000016095504919459766975_"  style="overflow:visible;fill:#571D7B;"/>
						<clipPath id="SVGID_00000029742406403753425170000015583251767881227693_">
							<use xlink:href="#SVGID_00000029760421227833531420000016095504919459766975_"  style="overflow:visible;"/>
						</clipPath>
						<path style="clip-path:url(#SVGID_00000029742406403753425170000015583251767881227693_);fill:#300044;" d="M486.77,486.43
							c9.86,2.04,5.82,14.29,4.26,29.27c1.3,1.04,2.87-0.09,3.65-0.35c0.78-0.26,12.51-23.36,11.46-24.93
							c-1.04-1.56-5.99-9.9-6.77-9.9S480.69,485.17,486.77,486.43z"/>
					</g>
				</g>
			</g>
			<path class="st34" d="M492.21,483.37l19.82-77.26l-31.27-6.25l-1.04,84.58l-13.56,11.44l13.36,0.82l12.7-2.91
				C492.21,493.79,492.14,483.66,492.21,483.37z"/>
			<g>
				<defs>
					<path id="SVGID_00000042723607876430631580000012192104151619569812_" d="M492.21,483.37l19.82-77.26l-31.27-6.25l-1.04,84.58
						l-13.56,11.44l13.36,0.82l12.7-2.91C492.21,493.79,492.14,483.66,492.21,483.37z"/>
				</defs>
				<clipPath id="SVGID_00000068675762724481528190000014686433141288393380_">
					<use xlink:href="#SVGID_00000042723607876430631580000012192104151619569812_"  style="overflow:visible;"/>
				</clipPath>
				<path style="clip-path:url(#SVGID_00000068675762724481528190000014686433141288393380_);fill:#A07A60;" d="M470.25,410.37
					c0,0,28.49,8.68,36.82,18.41c0,0,23.97-33.35,22.93-33.35s-65.31-7.64-64.27-5.21C466.78,392.65,470.25,410.37,470.25,410.37z"
					/>
			</g>
		</g>
		<g>
			<path class="st59" d="M474.5,413.93c52.11-2.08,70.82,55.53,94.67,25.19c4.33-27.09,0.78-60.45,0.78-60.45
				s45.86,14.85,40.65-38.82c-34.68-4.33-88.13-3.07-88.13-3.07S492.74,338.37,474.5,413.93z"/>
			<g>
				<defs>
					<path id="SVGID_00000072268600313639745700000000687033655303993273_" d="M474.5,413.93c52.11-2.08,70.82,55.53,94.67,25.19
						c4.33-27.09,0.78-60.45,0.78-60.45s45.86,14.85,40.65-38.82c-34.68-4.33-88.13-3.07-88.13-3.07S492.74,338.37,474.5,413.93z"/>
				</defs>
				<clipPath id="SVGID_00000009559296309077928480000016338658835437657751_">
					<use xlink:href="#SVGID_00000072268600313639745700000000687033655303993273_"  style="overflow:visible;"/>
				</clipPath>
				<path style="clip-path:url(#SVGID_00000009559296309077928480000016338658835437657751_);fill:#451568;" d="M488.44,351.18
					c25.36,6.6,72.92,6.37,93.15,4.2c0.48-0.05,0.59,0.64,0.13,0.76c-46.79,12.1-5.22,65.46-24.84,91.61
					c-14.65,19.54,82.68-70.52,82.68-70.52s-3.13-30.92-5.21-32.66c-2.08-1.74-4.86-11.12-18.76-12.51
					c-13.9-1.39-70.52-3.13-76.08-3.13s-33.35-0.35-35.43,2.08C501.99,333.47,491.74,334.94,488.44,351.18z"/>
				<path style="clip-path:url(#SVGID_00000009559296309077928480000016338658835437657751_);fill:#300044;" d="M605.86,330.34
					c0,0,12.16,50.37-36.65,48.29c5.91,13.55,49.16,34.39,49.16,34.39l31.27-79.21L605.86,330.34z"/>
			</g>
		</g>
	</g>
	<g id="elements_10_">
		<path class="st0" d="M519.89,300.93h37.61c2.61,0,4.58-2.37,4.1-4.93l-5.25-28.2c-0.37-1.97-2.09-3.41-4.1-3.41H513.9
			c-2.65,0-4.63,2.44-4.08,5.04l5.99,28.2C516.22,299.55,517.92,300.93,519.89,300.93z"/>
		<path class="st0" d="M407.86,268.86h37.61c2.61,0,4.58-2.37,4.1-4.93l-5.25-28.2c-0.37-1.97-2.09-3.41-4.1-3.41h-38.36
			c-2.65,0-4.63,2.44-4.08,5.04l5.99,28.2C404.19,267.48,405.89,268.86,407.86,268.86z"/>
		<polygon class="st2" points="420.73,337.26 510.56,337.26 499.13,275.86 407.68,275.86 		"/>
		<path class="st62" d="M510.79,275.3h21.41c2.64,0,4.61-2.42,4.08-5l-1.2-5.87H513.1c-2.8,0-4.8,2.71-3.99,5.39L510.79,275.3z"/>
		<path class="st12" d="M483.99,270.22h43.74c2.61,0,4.58-2.37,4.1-4.93l-6.15-33.07c-0.37-1.97-2.09-3.41-4.1-3.41h-44.61
			c-2.65,0-4.63,2.44-4.08,5.04l7.03,33.07C480.32,268.84,482.02,270.22,483.99,270.22z"/>
		<polygon class="st9" points="513.79,337.26 562.26,337.26 562.26,334.03 512.71,334.03 		"/>
		<polygon class="st9" points="513.79,337.26 501.94,275.86 497.81,275.86 510.38,337.26 		"/>
		
			<ellipse transform="matrix(0.9535 -0.3015 0.3015 0.9535 -71.1253 151.3186)" class="st0" cx="454.61" cy="306.06" rx="6.32" ry="8.66"/>
		<polygon class="st13" points="515.24,257.66 494.17,257.66 490.17,242.49 511.24,242.49 		"/>
		<path class="st19" d="M492.53,245.52c0,0,9.8,7.59,18.15,0.76"/>
	</g>
	<g id="elements_9_">
		<rect x="393.5" y="337.26" class="st63" width="208.47" height="7.56"/>
		<g>
			<polygon class="st63" points="376.29,503 441.81,344.42 449.88,344.42 384.25,502.99 			"/>
			<g>
				<defs>
					<polygon id="SVGID_00000062904625714023851550000009800381345068143532_" points="376.19,503.26 441.81,344.42 449.88,344.42 
						384.25,502.99 					"/>
				</defs>
				<clipPath id="SVGID_00000085968376461870570730000005174168221533219237_">
					<use xlink:href="#SVGID_00000062904625714023851550000009800381345068143532_"  style="overflow:visible;"/>
				</clipPath>
				<path style="clip-path:url(#SVGID_00000085968376461870570730000005174168221533219237_);fill:#879AAA;" d="M428.43,354.75
					h23.19l3.13-13.29c0,0-11.99-1.3-13.29-1.04C440.15,340.68,428.43,354.75,428.43,354.75z"/>
			</g>
		</g>
		<g>
			<polygon class="st63" points="609.77,503.17 544.19,344.42 536.11,344.42 601.75,502.99 			"/>
			<g>
				<defs>
					<polygon id="SVGID_00000080886361651250527380000009032321912143508907_" points="609.43,502.41 544.19,344.42 536.11,344.42 
						601.75,502.99 					"/>
				</defs>
				<clipPath id="SVGID_00000058572802539440933260000012953360549731511446_">
					<use xlink:href="#SVGID_00000080886361651250527380000009032321912143508907_"  style="overflow:visible;"/>
				</clipPath>
				<path style="clip-path:url(#SVGID_00000058572802539440933260000012953360549731511446_);fill:#879AAA;" d="M533.69,355.01
					h20.32l-7.03-12.25c0,0-17.46-2.08-16.94,1.82C530.56,348.49,533.69,355.01,533.69,355.01z"/>
			</g>
		</g>
	</g>
</g>
<g id="man">
	<g id="elements_8_">
		<g>
			<path class="st22" d="M169.49,173.96c0,0,2.08,20.15-2.78,28.66c6.6,2.95,25.41,10.4,24.99,6.6c-0.96-8.6-3.63-26.23-3.63-26.23
				L169.49,173.96"/>
			<g>
				<defs>
					<path id="SVGID_00000174599347991838109670000013320543398483041449_" d="M169.49,173.96c0,0,2.08,20.15-2.78,28.66
						c6.6,2.95,25.41,10.4,24.99,6.6c-0.96-8.6-3.63-26.23-3.63-26.23L169.49,173.96"/>
				</defs>
				<clipPath id="SVGID_00000139263109779289249440000011526698121746142866_">
					<use xlink:href="#SVGID_00000174599347991838109670000013320543398483041449_"  style="overflow:visible;"/>
				</clipPath>
				<path style="clip-path:url(#SVGID_00000139263109779289249440000011526698121746142866_);fill:#ED6B3F;" d="M189.51,200.81
					l-1.26-6.12c-6.43-0.61-18.74-6.98-18.74-6.98s-3.34-3.67-3.27-4.39c0.07-0.72,1.89-11.4,2.21-11.33s10.23,2.08,11.07,2.21
					c0.85,0.13,7.17,1.3,7.82,1.95s3.99,24.26,3.99,24.26l-0.87,0.13"/>
			</g>
		</g>
		<g>
			<path class="st22" d="M184.17,188.82c0.58,0.81,2.41,4.43,4.17,4.43c3.34,0,6.95,0.78,10.07-3.73c4.6-6.64,2.17-16.07,2.17-16.07
				l1.35-2.34l-1.35-8.42c-0.27,0.81,1.18-3.65,0.52-11.12l-29.27,4.34l-2.69,23.62L184.17,188.82z"/>
			<path class="st67" d="M169.88,188.82c8.08,0,6.14,0.48,13.48,0.91c-3-5.56-0.98-8.08,0.15-11.46
				c-16.67-2.43-9.99-19.54,1.09-9.86c1.05,1.94,0.77,3.46,1.22,6.47c-10.16,12.38,1.61,18.5,1.61,18.5
				c7.72,1.73,14.69-3.87,14.06-11.75l-0.47-5.83c0,0-4.82,11.85-9.51,7.95c-1.87-4.21-9.51-16.54-0.48-19.15
				c4.17-5.38-0.69-7.12-0.69-7.12s3.82-8.6,10.51-2.17c4.95-5.82,3.04-20.24,3.04-20.24s-5.56,9.38-15.11,4.34
				C181.22,136.71,128.02,144,169.88,188.82z"/>
			<g>
				<defs>
					<path id="SVGID_00000052085796402312556140000008403854211398898580_" d="M169.88,188.82c8.08,0,6.14,0.48,13.48,0.91
						c-3-5.56-0.98-8.08,0.15-11.46c-16.67-2.43-9.99-19.54,1.09-9.86c1.05,1.94,0.77,3.46,1.22,6.47
						c-10.16,12.38,1.61,18.5,1.61,18.5c7.72,1.73,14.69-3.87,14.06-11.75l-0.47-5.83c0,0-4.82,11.85-9.51,7.95
						c-1.87-4.21-9.51-16.54-0.48-19.15c4.17-5.38-0.69-7.12-0.69-7.12s3.82-8.6,10.51-2.17c4.95-5.82,3.04-20.24,3.04-20.24
						s-5.56,9.38-15.11,4.34C181.22,136.71,128.02,144,169.88,188.82z"/>
				</defs>
				<clipPath id="SVGID_00000114792028421418807970000010054345504458790794_">
					<use xlink:href="#SVGID_00000052085796402312556140000008403854211398898580_"  style="overflow:visible;"/>
				</clipPath>
				<path style="clip-path:url(#SVGID_00000114792028421418807970000010054345504458790794_);fill:#3F1B1B;" d="M196.59,155.47
					c6.17-8.77-1.04-13.81-1.04-13.81s-7.73-4.43-7.38-4.6s7.56-4.6,8.6-4.6c1.04,0,6.6-0.35,6.95-0.17s0.09-0.09,0.78,0.69
					c0.69,0.78,0.96,20.93,0.96,20.93s-2.43,3.04-2.69,3.04S196.59,155.47,196.59,155.47z"/>
			</g>
			<path class="st69" d="M182.81,171.01c0,0-2.25-4.46-6.03-3.16"/>
		</g>
	</g>
	<path id="elements_7_" class="st2" d="M259.63,511.11c0,3.89-43.35,6.41-83.91,6.41s-73.46-3.15-73.46-7.05s32.89-7.05,73.46-7.05
		S259.63,507.22,259.63,511.11z"/>
	<g id="elements_6_">
		<path class="st22" d="M264.59,219.94l8.6-8.54l-0.69-12.64c-0.07-1.03,1.27-2.63,1.69-1.69l2.87,7.43l12.41-10.18l4.91-4.02
			c0.68-0.37,1.87,0.86,1.3,1.39l-8.21,9.94l0.78,2.34c3.33,2.59,0.88,7.74-1.3,9.25l-4.3,3l-11.72,17.76L264.59,219.94z"/>
		<g>
			<defs>
				<path id="SVGID_00000003095268019468872710000011227234986751817147_" d="M264.59,219.94l8.6-8.54l-0.69-12.64
					c-0.07-1.03,1.27-2.63,1.69-1.69l2.87,7.43l12.41-10.18l4.91-4.02c0.68-0.37,1.87,0.86,1.3,1.39l-8.21,9.94l0.78,2.34
					c3.33,2.59,0.88,7.74-1.3,9.25l-4.3,3l-11.72,17.76L264.59,219.94z"/>
			</defs>
			<clipPath id="SVGID_00000123441681089864675440000010110800809777667494_">
				<use xlink:href="#SVGID_00000003095268019468872710000011227234986751817147_"  style="overflow:visible;"/>
			</clipPath>
			<path style="clip-path:url(#SVGID_00000123441681089864675440000010110800809777667494_);fill:#ED6B3F;" d="M280.22,230.03
				l-9.51-16.67l-8.21,0.52l-2.61,6.12l3.52,12.12c0,0,1.69,2.21,1.95,2.61c0.26,0.39,3.65,1.56,3.65,1.56L280.22,230.03z"/>
		</g>
	</g>
	<g id="elements_5_">
		<path class="st22" d="M138.92,326.56c0-6.14,2.61-19.8,2.61-19.8l-19.57-31.16c0,0-2.73,14.52,1.94,28.55
			C127.4,314.66,138.56,325.49,138.92,326.56z"/>
		<g>
			<defs>
				<path id="SVGID_00000135664100848461908800000006897038965182759821_" d="M138.92,326.56c0-6.14,2.61-19.8,2.61-19.8
					l-19.57-31.16c0,0-2.73,14.52,1.94,28.55C127.4,314.66,138.56,325.49,138.92,326.56z"/>
			</defs>
			<clipPath id="SVGID_00000081631334302830665060000016509010849677104773_">
				<use xlink:href="#SVGID_00000135664100848461908800000006897038965182759821_"  style="overflow:visible;"/>
			</clipPath>
			<path style="clip-path:url(#SVGID_00000081631334302830665060000016509010849677104773_);fill:#ED6B3F;" d="M139.1,297.72
				c-0.26,0.52-8.16,30.05-8.16,30.05s-8.99-8.77-9.9-9.29s-11.2-19.41-11.72-20.32c-0.52-0.91-1.04-11.59-0.26-12.51
				c0.78-0.91,18.37-10.55,18.37-10.55l15.89,5.99L139.1,297.72z"/>
		</g>
	</g>
	<g id="elements_4_">
		<path class="st72" d="M163.07,204.72c0.18-0.55,2.55-4.29,3.71-6.11c0.39-0.61,1.07-0.98,1.8-0.96l21.96,0.47
			c0.64,0.01,1.24,0.32,1.63,0.84l4.3,5.78L163.07,204.72z"/>
		<g>
			<defs>
				<path id="SVGID_00000050649594910420687040000006414656674742609325_" d="M163.07,204.72c0.18-0.55,2.55-4.29,3.71-6.11
					c0.39-0.61,1.07-0.98,1.8-0.96l21.96,0.47c0.64,0.01,1.24,0.32,1.63,0.84l4.3,5.78L163.07,204.72z"/>
			</defs>
			<clipPath id="SVGID_00000050662836751079257250000011305533678185907089_">
				<use xlink:href="#SVGID_00000050649594910420687040000006414656674742609325_"  style="overflow:visible;"/>
			</clipPath>
			<path style="clip-path:url(#SVGID_00000050662836751079257250000011305533678185907089_);fill:#AF3601;" d="M191.83,208.55
				c0-0.52-1.56-8.34-1.56-8.34l-17.72-2.78c0,0-1.91-3.47,1.56-2.95c3.47,0.52,19.45,1.22,20.15,1.22c0.69,0,0.69,0,0.69,0
				l4.17,15.11L191.83,208.55z"/>
		</g>
	</g>
	<g id="elements_3_">
		<path class="st74" d="M143.18,204.88c0,0,34.44-0.41,61.67,0.05c7.26,0.12,14.03,3.61,18.36,9.43
			c10.39,13.96,20.97,30.21,20.97,30.21l25.36-31.61l6.72,15.21c0.37,0.93,0.32,1.98-0.14,2.88l-25.4,50.23
			c-3.49,6.6-13.57,6.1-18.48,0.48l-15.79-19.87c0,0,1.5,22.02-5.97,35.67c-23.31,10.68-47.63,5.97-67.05,2.08
			c-8.16-31.44-6.77-46.55-6.77-46.55l-9.9,12.51c-0.88,1.53-0.57,5.78,0.24,7.35l11.92,23.4l-8.16,20.84l-26.88-36.95
			c-4.96-6.2-3.52-22.19,1-28.71C117.81,232.89,115.73,206.62,143.18,204.88z"/>
		<g>
			<defs>
				<path id="SVGID_00000111154488843590125850000005631485931133728431_" d="M143.18,204.88c0,0,34.44-0.41,61.67,0.05
					c7.26,0.12,14.03,3.61,18.36,9.43c10.39,13.96,20.97,30.21,20.97,30.21l25.36-31.61l6.72,15.21c0.37,0.93,0.32,1.98-0.14,2.88
					l-25.4,50.23c-3.49,6.6-13.57,6.1-18.48,0.48l-15.79-19.87c0,0,1.5,22.02-5.97,35.67c-23.31,10.68-47.63,5.97-67.05,2.08
					c-8.16-31.44-6.77-46.55-6.77-46.55l-9.9,12.51c-0.88,1.53-0.57,5.78,0.24,7.35l11.92,23.4l-8.16,20.84l-26.88-36.95
					c-4.96-6.2-3.52-22.19,1-28.71C117.81,232.89,115.73,206.62,143.18,204.88z"/>
			</defs>
			<clipPath id="SVGID_00000105421736933793099530000007174346580359118234_">
				<use xlink:href="#SVGID_00000111154488843590125850000005631485931133728431_"  style="overflow:visible;"/>
			</clipPath>
			<path style="clip-path:url(#SVGID_00000105421736933793099530000007174346580359118234_);fill:#AF3601;" d="M232.8,282.92
				c0,0,9.81,6.08,19.93-12.12c5.89-7.73,14.85-26.71,23.84-42.6c15.29-15.98,9.29,8.9,9.29,8.9l-35.96,51.33l-8.34,4.69
				L232.8,282.92z"/>
		</g>
		<line class="st8" x1="270.83" y1="223.39" x2="261.9" y2="237.62"/>
		<circle class="st0" cx="272.15" cy="227.94" r="1.04"/>
		<line class="st8" x1="124.66" y1="301.16" x2="130.92" y2="308.46"/>
	</g>
	<g id="elements_2_">
		<g>
			<polygon class="st22" points="151.25,491.74 150.43,506.24 142.72,503.71 140.96,493.05 			"/>
			<g>
				<defs>
					<polygon id="SVGID_00000049199092906101068010000003387134422378834314_" points="151.25,491.74 150.43,506.24 142.72,503.71 
						140.96,493.05 					"/>
				</defs>
				<clipPath id="SVGID_00000167378959970149385460000007386328989886154146_">
					<use xlink:href="#SVGID_00000049199092906101068010000003387134422378834314_"  style="overflow:visible;"/>
				</clipPath>
				<path style="clip-path:url(#SVGID_00000167378959970149385460000007386328989886154146_);fill:#ED6B3F;" d="M138.68,497.08
					c0,0,5.41,2.61,13.35-0.39c7.95-3-2.93-8.01-3.91-7.88c-0.98,0.13-8.01-0.59-8.27,1.3C139.59,492,138.68,497.08,138.68,497.08z"
					/>
			</g>
			<g>
				<path class="st13" d="M150.69,502.24l1.73,5.87c0.86,2.93-1.46,5.26-4.32,5.14h-8.81c-1.99,0-3.6-1.4-3.5-3.09
					c0.07-1.33,0.35-3.03,1.09-4.98c0.88-2.36,5.07-3.48,5.56-4.21C144.17,505.37,150.69,502.24,150.69,502.24z"/>
				<g>
					<defs>
						<path id="SVGID_00000116202252810621590260000005512942613202852254_" d="M150.69,502.24l1.73,5.87
							c0.86,2.93-1.46,5.26-4.32,5.14h-8.81c-1.99,0-3.6-1.4-3.5-3.09c0.07-1.33,0.35-3.03,1.09-4.98c0.88-2.36,5.07-3.48,5.56-4.21
							C144.17,505.37,150.69,502.24,150.69,502.24z"/>
					</defs>
					<clipPath id="SVGID_00000118368377832574067760000015072591029984386485_">
						<use xlink:href="#SVGID_00000116202252810621590260000005512942613202852254_"  style="overflow:visible;"/>
					</clipPath>
					<path style="clip-path:url(#SVGID_00000118368377832574067760000015072591029984386485_);fill:#FFFFFF;" d="M135.3,507.9
						c0,0,2.08,5.21,17.72,2.08c15.63-3.13-2.08,4.17-2.08,4.17h-9.38c0,0-4.17,0-5.21,0c-1.04,0-3.13-4.17-3.13-4.17L135.3,507.9z"
						/>
				</g>
			</g>
		</g>
		<g>
			<polygon class="st22" points="198.89,491.74 199.71,506.24 207.42,503.71 209.18,493.05 			"/>
			<g>
				<defs>
					<polygon id="SVGID_00000109024529862086896610000011704711314367959979_" points="198.89,491.74 199.71,506.24 207.42,503.71 
						209.18,493.05 					"/>
				</defs>
				<clipPath id="SVGID_00000041267175723358162790000011035635338981145018_">
					<use xlink:href="#SVGID_00000109024529862086896610000011704711314367959979_"  style="overflow:visible;"/>
				</clipPath>
				<path style="clip-path:url(#SVGID_00000041267175723358162790000011035635338981145018_);fill:#ED6B3F;" d="M211.46,497.08
					c0,0-5.41,2.61-13.35-0.39s2.93-8.01,3.91-7.88s8.01-0.59,8.27,1.3S211.46,497.08,211.46,497.08z"/>
			</g>
			<g>
				<path class="st13" d="M199.45,502.24l-1.73,5.87c-0.86,2.93,1.46,5.26,4.32,5.14h8.81c1.99,0,3.6-1.4,3.5-3.09
					c-0.07-1.33-0.35-3.03-1.09-4.98c-0.88-2.36-5.07-3.48-5.56-4.21C205.98,505.37,199.45,502.24,199.45,502.24z"/>
				<g>
					<defs>
						<path id="SVGID_00000049928751520076333950000008617523287164551308_" d="M199.45,502.24l-1.73,5.87
							c-0.86,2.93,1.46,5.26,4.32,5.14h8.81c1.99,0,3.6-1.4,3.5-3.09c-0.07-1.33-0.35-3.03-1.09-4.98
							c-0.88-2.36-5.07-3.48-5.56-4.21C205.98,505.37,199.45,502.24,199.45,502.24z"/>
					</defs>
					<clipPath id="SVGID_00000130618560581050524510000015531434424572046226_">
						<use xlink:href="#SVGID_00000049928751520076333950000008617523287164551308_"  style="overflow:visible;"/>
					</clipPath>
					<path style="clip-path:url(#SVGID_00000130618560581050524510000015531434424572046226_);fill:#FFFFFF;" d="M214.85,507.9
						c0,0-2.08,5.21-17.72,2.08c-15.63-3.13,2.08,4.17,2.08,4.17h9.38c0,0,4.17,0,5.21,0c1.04,0,3.13-4.17,3.13-4.17L214.85,507.9z"
						/>
				</g>
			</g>
		</g>
		<path class="st30" d="M210.66,297.9c21.02,24.49,5.38,159.63-0.81,196.74c0,0.01,0,0.02-0.01,0.03c-0.25,1.51-1.61,2.56-3.14,2.53
			c-7.52-0.16-8.3-3.45-8.3-3.45s-10.42-70.26-9.47-86.59c-3.82-22.93-9.71-54.6-9.71-54.6s-1.67,0.97-2.5,0
			c-1.27,1.49-2.73,20.23-10.43,52.53c0.24,9.68-12.48,79.03-14.31,89.12c-0.14,0.75-0.68,1.34-1.42,1.53
			c-2.78,0.74-9.51,2.24-10.27-0.34c-2.71-9.21-11.12-175.09,3.13-195.41C162.6,284.44,198.16,291.1,210.66,297.9z"/>
		<g>
			<defs>
				<path id="SVGID_00000086652441241184116360000006013492761117127312_" d="M210.66,297.9c21.02,24.49,5.38,159.63-0.81,196.74
					c0,0.01,0,0.02-0.01,0.03c-0.25,1.51-1.61,2.56-3.14,2.53c-7.52-0.16-8.3-3.45-8.3-3.45s-10.42-70.26-9.47-86.59
					c-3.82-22.93-9.71-54.6-9.71-54.6s-1.67,0.97-2.5,0c-1.27,1.49-2.66,20-10.37,52.3c0.24,9.68-12.54,79.26-14.37,89.34
					c-0.14,0.75-0.68,1.34-1.42,1.53c-2.78,0.74-9.51,2.24-10.27-0.34c-2.71-9.21-11.12-175.09,3.13-195.41
					C162.6,284.44,198.16,291.1,210.66,297.9z"/>
			</defs>
			<clipPath id="SVGID_00000098202554644641826380000012904094279437435552_">
				<use xlink:href="#SVGID_00000086652441241184116360000006013492761117127312_"  style="overflow:visible;"/>
			</clipPath>
			<path style="clip-path:url(#SVGID_00000098202554644641826380000012904094279437435552_);fill:#283643;" d="M216.04,340.8
				c-0.8-8.6-4.67-20.5-7.36-29.59c-1.11-3.74-4.51-6.33-8.4-6.38c-13.84-0.18-35.87-1.2-35.87-1.2l40.86-5.21l5.56-7.3
				c0,0,13.9,0,13.9,1.39c0,1.39-3.13,204.27-3.13,204.27l-13.9,2.43C207.71,499.21,219.52,378.32,216.04,340.8z"/>
			<path style="clip-path:url(#SVGID_00000098202554644641826380000012904094279437435552_);fill:#B9C8D4;" d="M152.12,285.56
				c-0.35,1.04-8.34,17.02-11.12,31.96c-2.78,14.94-6.6,129.58-0.69,163.97s-5.21,29.53-6.25,27.1
				c-1.04-2.43-15.98-139.31-20.5-145.91c-4.52-6.6,2.08-64.62,2.08-64.62L152.12,285.56z"/>
		</g>
	</g>
	<g id="elements_1_">
		<path class="st82" d="M143.18,204.88c0,0,34.44-0.41,61.67,0.05c20.93,1.78,11.29,52.32,11.29,52.32s2.61,26.58-5.65,40.3
			c-23.31,10.68-47.63,5.97-67.05,2.08c-8.16-31.44-6.77-46.55-6.77-46.55S129.89,204.62,143.18,204.88z"/>
		<g>
			<defs>
				<path id="SVGID_00000162333977610079868360000013661073572817038236_" d="M143.18,204.88c0,0,34.44-0.41,61.67,0.05
					c20.93,1.78,11.29,52.32,11.29,52.32s2.61,26.58-5.65,40.3c-23.31,10.68-47.63,5.97-67.05,2.08
					c-8.16-31.44-6.77-46.55-6.77-46.55S129.89,204.62,143.18,204.88z"/>
			</defs>
			<clipPath id="SVGID_00000153698697791568115210000016465578640533770151_">
				<use xlink:href="#SVGID_00000162333977610079868360000013661073572817038236_"  style="overflow:visible;"/>
			</clipPath>
			<path style="clip-path:url(#SVGID_00000153698697791568115210000016465578640533770151_);fill:#AF3601;" d="M203.62,203.32
				c0,0,15.11,21.89,6.51,53.67c2.34,18.5-1.22,40.38-1.22,40.38l7.99-1.91l5.56-26.4l-1.39-42.38l-5.38-28.49L203.62,203.32z"/>
		</g>
	</g>
	<g id="elements">
		<g>
			<defs>
				<path id="SVGID_00000137121710900735565460000017750902939586884510_" d="M142.27,295.03c0,0,31.98,8.27,70.28-1.63l-0.65,5.93
					c0,0-39.93,10.55-68.85,0.91C141.35,297.38,142.27,295.03,142.27,295.03z"/>
			</defs>
			<clipPath id="SVGID_00000003822311439692001360000016719802710136160668_">
				<use xlink:href="#SVGID_00000137121710900735565460000017750902939586884510_"  style="overflow:visible;"/>
			</clipPath>
		</g>
	</g>
</g>
</svg>
