<?xml version="1.0" encoding="utf-8"?>
<!-- Generator: Adobe Illustrator 27.0.0, SVG Export Plug-In . SVG Version: 6.00 Build 0)  -->
<svg version="1.1" id="Layer_1" xmlns="http://www.w3.org/2000/svg" xmlns:xlink="http://www.w3.org/1999/xlink" x="0px" y="0px"
	 viewBox="0 0 385 267.81" style="enable-background:new 0 0 385 267.81;" xml:space="preserve">
<style type="text/css">
	.st0{opacity:0.23;fill:#005284;}
	.st1{clip-path:url(#SVGID_00000178200866924507519590000006208326626409098175_);}
	.st2{clip-path:url(#SVGID_00000062167691779125532090000012726749238903789444_);fill:#B9C8D4;}
	.st3{clip-path:url(#SVGID_00000181085046879064651260000002963097479833658240_);}
	.st4{clip-path:url(#SVGID_00000036236684091203418470000000153051874616912779_);}
	.st5{clip-path:url(#SVGID_00000181783984806623194160000005123509679456191399_);enable-background:new    ;}
	.st6{clip-path:url(#SVGID_00000129187111433705978460000017127999905429166223_);}
	
		.st7{clip-path:url(#SVGID_00000054252829219066192860000005999223308290048411_);fill:none;stroke:#FFFFFF;stroke-width:4;stroke-linejoin:round;stroke-miterlimit:10;}
	.st8{clip-path:url(#SVGID_00000111164462650758323150000001394564176089078660_);fill:#879AAA;}
	.st9{clip-path:url(#SVGID_00000144324432510619178010000008546743317180022455_);fill:#DDE6ED;}
	.st10{fill-rule:evenodd;clip-rule:evenodd;fill:#B9C8D4;}
	.st11{clip-path:url(#SVGID_00000009561954327565379060000014299838035838165676_);}
	.st12{fill:#B9C8D4;}
	.st13{clip-path:url(#SVGID_00000179638453829258463300000017715193820112971669_);fill:#B9C8D4;}
	.st14{clip-path:url(#SVGID_00000140014119754922894770000004271226328761559443_);}
	.st15{clip-path:url(#SVGID_00000067212096915297147700000016225510122112624285_);fill:#879AAA;}
	.st16{clip-path:url(#SVGID_00000036967553042488784710000003697086673654396582_);}
	.st17{clip-path:url(#SVGID_00000015338887367872441020000008798425975886540425_);fill:#FFFFFF;}
	.st18{clip-path:url(#SVGID_00000151523757575422509780000005744264647225821363_);}
	.st19{clip-path:url(#SVGID_00000138540337346337729800000014338836934867102131_);fill:#FFFFFF;}
	.st20{clip-path:url(#SVGID_00000153683217661417234000000000385113815135498402_);}
	.st21{clip-path:url(#SVGID_00000116916705838874701430000004452641375389166776_);fill:#B9C8D4;}
	.st22{clip-path:url(#SVGID_00000140011514896741162720000008220749956030698161_);}
	.st23{clip-path:url(#SVGID_00000011003389519650113120000016359774846360897971_);fill:#879AAA;}
	.st24{clip-path:url(#SVGID_00000167389649435774966850000016907366159382498177_);}
	.st25{clip-path:url(#SVGID_00000109737496150393775930000014751395459661343116_);fill:#DDE6ED;}
	.st26{clip-path:url(#SVGID_00000116958016578702141840000001721743982580009393_);}
	.st27{clip-path:url(#SVGID_00000026843640062182993850000017356905131320256670_);fill:#B9C8D4;}
	.st28{clip-path:url(#SVGID_00000062192002419706547150000016744514630102303884_);}
	.st29{clip-path:url(#SVGID_00000070822203853184161350000014030452681414522791_);enable-background:new    ;}
	.st30{clip-path:url(#SVGID_00000022524126782177563940000001085318709096351392_);}
	
		.st31{clip-path:url(#SVGID_00000024694528796708275900000005091814972247443079_);fill:none;stroke:#FFFFFF;stroke-width:4;stroke-linejoin:round;stroke-miterlimit:10;}
	.st32{clip-path:url(#SVGID_00000086689916594565024830000002058735151742557344_);}
	.st33{clip-path:url(#SVGID_00000036931744917213650170000016101901039098807206_);fill:#005284;}
	.st34{clip-path:url(#SVGID_00000084500150457529037440000013384961690399324805_);}
	.st35{clip-path:url(#SVGID_00000070097020924792367600000010632370798147240579_);fill:#0064B0;}
	.st36{fill-rule:evenodd;clip-rule:evenodd;fill:#0064B0;}
	.st37{clip-path:url(#SVGID_00000098917495561833890610000002514102691859650438_);}
	.st38{fill:#0064B0;}
	.st39{clip-path:url(#SVGID_00000151510432561601299400000011121284288990195344_);fill:#0064B0;}
	.st40{clip-path:url(#SVGID_00000103226815548757006040000001158370064851550112_);}
	.st41{clip-path:url(#SVGID_00000096049807601962088490000001556588791483344002_);fill:#005284;}
	.st42{clip-path:url(#SVGID_00000112628191514406616210000002931869807289110686_);}
	.st43{clip-path:url(#SVGID_00000103949567284696849620000001560566554904778662_);enable-background:new    ;}
	.st44{clip-path:url(#SVGID_00000120541843159402827590000012823209620986099099_);}
	
		.st45{clip-path:url(#SVGID_00000107552493933376278410000000178916577950115743_);fill:none;stroke:#161A1D;stroke-width:2;stroke-linejoin:round;stroke-miterlimit:10;}
	.st46{clip-path:url(#SVGID_00000047049243076863061960000003774500897207496069_);}
	.st47{clip-path:url(#SVGID_00000172404232402569039550000005618070619384046495_);fill:#161A1D;}
	.st48{clip-path:url(#SVGID_00000018919147992701746980000010235568177412296069_);}
	.st49{clip-path:url(#SVGID_00000116217723598840409360000003923619323296018615_);fill:#161A1D;}
	.st50{clip-path:url(#SVGID_00000151503209777790514470000002367390187605126785_);fill:#002E56;}
	.st51{clip-path:url(#SVGID_00000083051973471803437280000005810386552625783731_);fill:#00213E;}
	.st52{clip-path:url(#SVGID_00000057829982901855965260000002087911199012350606_);}
	.st53{clip-path:url(#SVGID_00000072240863674947210820000017978809165229619624_);fill:#00213E;}
	.st54{clip-path:url(#SVGID_00000121280125523383606220000006062382823162230429_);}
	.st55{clip-path:url(#SVGID_00000138559202867062414980000002749010112119445655_);fill:#002E56;}
	.st56{clip-path:url(#SVGID_00000140723363108639657920000002196386356610437817_);}
	.st57{clip-path:url(#SVGID_00000142889633907872997440000011157849700292245653_);fill:#005284;}
	.st58{clip-path:url(#SVGID_00000147188286342988622260000002088756761854175650_);}
	.st59{clip-path:url(#SVGID_00000018224802272563939410000014919291444680816790_);fill:#005284;}
	.st60{clip-path:url(#SVGID_00000008125630267416226480000017515105002235209888_);}
	.st61{clip-path:url(#SVGID_00000057150602695392473370000013367661920823511205_);fill:#005284;}
</style>
<circle class="st0" cx="31.13" cy="224.77" r="26.6"/>
<g id="Layer_3">
	<g>
		<g>
			<g>
				<defs>
					<path id="SVGID_1_" d="M331.8,12.05c0.63,0,1.14,0.51,1.14,1.13v4.72c0,0.63-0.51,1.14-1.14,1.14s-1.14-0.51-1.14-1.14v-4.72
						C330.66,12.56,331.17,12.05,331.8,12.05z M323.11,17.51l4.09,2.37c0.54,0.32,0.73,1.01,0.41,1.55
						c-0.21,0.36-0.59,0.56-0.99,0.56c-0.19,0-0.39-0.05-0.57-0.15l-4.09-2.38c-0.54-0.32-0.73-1.01-0.41-1.55
						C321.87,17.38,322.56,17.2,323.11,17.51z M342.13,18.05c0.31,0.55,0.12,1.24-0.43,1.55l-4.12,2.32
						c-0.18,0.1-0.37,0.15-0.56,0.15c-0.4,0-0.78-0.21-0.99-0.58c-0.31-0.55-0.12-1.24,0.43-1.55l4.12-2.32
						C341.13,17.31,341.82,17.5,342.13,18.05z M327.58,26.26c0.31,0.55,0.12,1.24-0.43,1.55l-4.12,2.32
						c-0.18,0.1-0.37,0.15-0.56,0.15c-0.4,0-0.78-0.21-0.99-0.58c-0.31-0.55-0.12-1.24,0.43-1.55l4.12-2.32
						C326.57,25.52,327.27,25.71,327.58,26.26z M337.56,25.9l4.09,2.37c0.54,0.32,0.73,1.01,0.41,1.55
						c-0.21,0.36-0.59,0.56-0.99,0.56c-0.19,0-0.39-0.05-0.57-0.15l-4.09-2.38c-0.54-0.32-0.73-1.01-0.41-1.55
						C336.32,25.77,337.01,25.59,337.56,25.9z M331.8,28.71c0.63,0,1.14,0.51,1.14,1.13v4.72c0,0.63-0.51,1.14-1.14,1.14
						s-1.14-0.51-1.14-1.14v-4.72C330.66,29.22,331.17,28.71,331.8,28.71z"/>
				</defs>
				<clipPath id="SVGID_00000183930237578822557380000012727588691217713590_">
					<use xlink:href="#SVGID_1_"  style="overflow:visible;"/>
				</clipPath>
				<g style="clip-path:url(#SVGID_00000183930237578822557380000012727588691217713590_);">
					<g>
						<defs>
							
								<rect id="SVGID_00000158743478234666622770000004258983488971899545_" x="-283.22" y="-124.98" width="859.26" height="544.36"/>
						</defs>
						<clipPath id="SVGID_00000103947493527579422320000015144136380004906913_">
							<use xlink:href="#SVGID_00000158743478234666622770000004258983488971899545_"  style="overflow:visible;"/>
						</clipPath>
						
							<rect x="318.64" y="9.37" style="clip-path:url(#SVGID_00000103947493527579422320000015144136380004906913_);fill:#B9C8D4;" width="26.33" height="29.02"/>
					</g>
				</g>
			</g>
		</g>
		<g>
			<g>
				<defs>
					<path id="SVGID_00000106865281855554394460000007670658421490020255_" d="M379.34,98.99c8.58-10.23,7.25-25.48-2.98-34.07
						l-31.09,37.05C355.5,110.56,370.76,109.22,379.34,98.99z"/>
				</defs>
				<clipPath id="SVGID_00000072248179378860384060000010771873009898846344_">
					<use xlink:href="#SVGID_00000106865281855554394460000007670658421490020255_"  style="overflow:visible;"/>
				</clipPath>
				<g style="clip-path:url(#SVGID_00000072248179378860384060000010771873009898846344_);">
					<g>
						<defs>
							
								<rect id="SVGID_00000004531335073323039330000015854296115897016705_" x="-111.02" y="113.64" transform="matrix(0.6428 -0.766 0.766 0.6428 -181.7427 381.8615)" width="859.24" height="544.35"/>
						</defs>
						<clipPath id="SVGID_00000051385779898214490180000002571756537982976180_">
							<use xlink:href="#SVGID_00000004531335073323039330000015854296115897016705_"  style="overflow:visible;"/>
						</clipPath>
					</g>
				</g>
			</g>
		</g>
		<g>
			<g>
				<defs>
					<path id="SVGID_00000020366396224828925750000013377456149910533019_" d="M218.08,133.3h102.81c1.11,0,2.01,0.9,2.01,2.01V201
						c0,1.11-0.9,2.01-2.01,2.01H218.08c-1.11,0-2.01-0.9-2.01-2.01v-65.7C216.07,134.19,216.97,133.3,218.08,133.3z"/>
				</defs>
				<clipPath id="SVGID_00000152227720206179753320000009286312020079437502_">
					<use xlink:href="#SVGID_00000020366396224828925750000013377456149910533019_"  style="overflow:visible;"/>
				</clipPath>
				<g style="clip-path:url(#SVGID_00000152227720206179753320000009286312020079437502_);">
					<g>
						<defs>
							
								<rect id="SVGID_00000178927034323196482160000006972609314905714834_" x="-721.79" y="-451.3" width="1069.14" height="677.32"/>
						</defs>
						<clipPath id="SVGID_00000051345779149738271340000018208924763578712992_">
							<use xlink:href="#SVGID_00000178927034323196482160000006972609314905714834_"  style="overflow:visible;"/>
						</clipPath>
						<g style="clip-path:url(#SVGID_00000051345779149738271340000018208924763578712992_);enable-background:new    ;">
							<g>
								<g>
									<defs>
										
											<rect id="SVGID_00000166665334106909725060000009725693271972447896_" x="212.95" y="130.41" width="113" height="75.55"/>
									</defs>
									<clipPath id="SVGID_00000083787714828697116990000004548471091463112848_">
										<use xlink:href="#SVGID_00000166665334106909725060000009725693271972447896_"  style="overflow:visible;"/>
									</clipPath>
									<g style="clip-path:url(#SVGID_00000083787714828697116990000004548471091463112848_);">
										<g>
											<defs>
												
													<rect id="SVGID_00000005257700959055325360000002527984416965896602_" x="215.62" y="133.08" width="107.65" height="70.21"/>
											</defs>
											<clipPath id="SVGID_00000156575411305938793030000010192215330729831814_">
												<use xlink:href="#SVGID_00000005257700959055325360000002527984416965896602_"  style="overflow:visible;"/>
											</clipPath>
											
												<path style="clip-path:url(#SVGID_00000156575411305938793030000010192215330729831814_);fill:none;stroke:#FFFFFF;stroke-width:4;stroke-linejoin:round;stroke-miterlimit:10;" d="
												M218.08,133.3h102.81c1.11,0,2.01,0.9,2.01,2.01V201c0,1.11-0.9,2.01-2.01,2.01H218.08c-1.11,0-2.01-0.9-2.01-2.01v-65.7
												C216.07,134.19,216.97,133.3,218.08,133.3z"/>
										</g>
									</g>
								</g>
							</g>
						</g>
					</g>
				</g>
			</g>
		</g>
		<g>
			<g>
				<g>
					<defs>
						<rect id="SVGID_00000152957013486154482090000006893883454905499325_" x="93.15" y="23.88" width="200.24" height="202.15"/>
					</defs>
					<clipPath id="SVGID_00000069390920428847584080000018295360003041341886_">
						<use xlink:href="#SVGID_00000152957013486154482090000006893883454905499325_"  style="overflow:visible;"/>
					</clipPath>
					
						<rect x="90.34" y="21.07" style="clip-path:url(#SVGID_00000069390920428847584080000018295360003041341886_);fill:#879AAA;" width="210.16" height="208.45"/>
				</g>
			</g>
			<g>
				<g>
					<defs>
						<rect id="SVGID_00000150781492225990472030000011868482763832805812_" x="38.13" y="23.88" width="55.02" height="202.15"/>
					</defs>
					<clipPath id="SVGID_00000145754064441247620770000008125610190026764949_">
						<use xlink:href="#SVGID_00000150781492225990472030000011868482763832805812_"  style="overflow:visible;"/>
					</clipPath>
					
						<rect x="35.32" y="21.07" style="clip-path:url(#SVGID_00000145754064441247620770000008125610190026764949_);fill:#DDE6ED;" width="60.63" height="208.45"/>
				</g>
			</g>
			<g>
				<g>
					<path id="SVGID_00000084490787124744067860000008542345521624491167_" class="st10" d="M94.55,23.59l25.54,54.53
						c0.28,0.59,0.88,0.97,1.53,0.97l198.86-1.14c0.93-0.01,1.68-0.76,1.67-1.69c0-0.24-0.06-0.49-0.16-0.71L297.55,23.6
						L94.55,23.59L94.55,23.59z"/>
				</g>
				<g>
					<defs>
						<path id="SVGID_00000155828577898767311530000016529588873188029589_" d="M94.55,23.59l25.54,54.53
							c0.28,0.59,0.88,0.97,1.53,0.97l198.86-1.14c0.93-0.01,1.68-0.76,1.67-1.69c0-0.24-0.06-0.49-0.16-0.71L297.55,23.6
							L94.55,23.59L94.55,23.59z"/>
					</defs>
					<clipPath id="SVGID_00000155862201639689561180000014736988247752124041_">
						<use xlink:href="#SVGID_00000155828577898767311530000016529588873188029589_"  style="overflow:visible;"/>
					</clipPath>
					<g style="clip-path:url(#SVGID_00000155862201639689561180000014736988247752124041_);">
						<g>
							
								<rect id="SVGID_00000172399560025398734150000010005685861430164615_" x="-603.24" y="-342.01" class="st12" width="896.62" height="568.03"/>
						</g>
						<g>
							<defs>
								
									<rect id="SVGID_00000018930193107328146910000005424441733973096374_" x="-603.24" y="-342.01" width="896.62" height="568.03"/>
							</defs>
							<clipPath id="SVGID_00000061446409372986405770000010100919888485265833_">
								<use xlink:href="#SVGID_00000018930193107328146910000005424441733973096374_"  style="overflow:visible;"/>
							</clipPath>
							
								<rect x="91.75" y="20.79" style="clip-path:url(#SVGID_00000061446409372986405770000010100919888485265833_);fill:#B9C8D4;" width="233.21" height="61.1"/>
						</g>
					</g>
				</g>
			</g>
			<g>
				<g>
					<defs>
						<path id="SVGID_00000094602311501320477400000011287925466072345263_" d="M94.55,23.59L67.33,76.82
							c-0.29,0.56-0.86,0.91-1.49,0.92l-51.22,0.18c-0.93,0-1.69-0.75-1.69-1.68c0-0.26,0.06-0.52,0.18-0.75l25.27-50.96
							c0.28-0.57,0.87-0.93,1.51-0.93L94.55,23.59L94.55,23.59z"/>
					</defs>
					<clipPath id="SVGID_00000181078398619871780750000005150582099167936402_">
						<use xlink:href="#SVGID_00000094602311501320477400000011287925466072345263_"  style="overflow:visible;"/>
					</clipPath>
					<g style="clip-path:url(#SVGID_00000181078398619871780750000005150582099167936402_);">
						<g>
							<defs>
								
									<rect id="SVGID_00000126310570791098648240000008981913691038087598_" x="-603.24" y="-342.01" width="896.62" height="568.03"/>
							</defs>
							<clipPath id="SVGID_00000148630738527380454760000018319307917705410180_">
								<use xlink:href="#SVGID_00000126310570791098648240000008981913691038087598_"  style="overflow:visible;"/>
							</clipPath>
							
								<rect x="10.12" y="20.79" style="clip-path:url(#SVGID_00000148630738527380454760000018319307917705410180_);fill:#879AAA;" width="87.23" height="59.93"/>
						</g>
					</g>
				</g>
			</g>
			<g>
				<g>
					<defs>
						<path id="SVGID_00000172406759726837326240000003228975600406539955_" d="M184.7,86.28h88.17c0.39,0,0.7,0.32,0.7,0.7
							c0,0.39-0.32,0.7-0.7,0.7H184.7c-0.39,0-0.7-0.32-0.7-0.7C184,86.59,184.32,86.28,184.7,86.28z"/>
					</defs>
					<clipPath id="SVGID_00000006702626529909421790000010195230109430888343_">
						<use xlink:href="#SVGID_00000172406759726837326240000003228975600406539955_"  style="overflow:visible;"/>
					</clipPath>
					<g style="clip-path:url(#SVGID_00000006702626529909421790000010195230109430888343_);">
						<g>
							<defs>
								
									<rect id="SVGID_00000122705886049906497380000018298755382845335977_" x="-603.24" y="-342.01" width="896.62" height="568.03"/>
							</defs>
							<clipPath id="SVGID_00000075132139789566976280000015851148230883349153_">
								<use xlink:href="#SVGID_00000122705886049906497380000018298755382845335977_"  style="overflow:visible;"/>
							</clipPath>
							
								<rect x="181.2" y="83.47" style="clip-path:url(#SVGID_00000075132139789566976280000015851148230883349153_);fill:#FFFFFF;" width="95.19" height="7.02"/>
						</g>
					</g>
				</g>
			</g>
			<g>
				<g>
					<defs>
						<path id="SVGID_00000116197017484099177320000003733833519787757710_" d="M184.7,93.32h88.17c0.39,0,0.7,0.32,0.7,0.7
							c0,0.39-0.32,0.7-0.7,0.7H184.7c-0.39,0-0.7-0.32-0.7-0.7S184.32,93.32,184.7,93.32z"/>
					</defs>
					<clipPath id="SVGID_00000133521468591853188850000010507076465770773908_">
						<use xlink:href="#SVGID_00000116197017484099177320000003733833519787757710_"  style="overflow:visible;"/>
					</clipPath>
					<g style="clip-path:url(#SVGID_00000133521468591853188850000010507076465770773908_);">
						<g>
							<defs>
								
									<rect id="SVGID_00000106121272093653460980000008608590619731353237_" x="-603.24" y="-342.01" width="896.62" height="568.03"/>
							</defs>
							<clipPath id="SVGID_00000143575747174283429390000001668509472984124845_">
								<use xlink:href="#SVGID_00000106121272093653460980000008608590619731353237_"  style="overflow:visible;"/>
							</clipPath>
							
								<rect x="181.2" y="90.52" style="clip-path:url(#SVGID_00000143575747174283429390000001668509472984124845_);fill:#FFFFFF;" width="95.19" height="7.02"/>
						</g>
					</g>
				</g>
			</g>
		</g>
		<g>
			<g>
				<defs>
					<path id="SVGID_00000167359633104198829610000008849594955505042081_" d="M136.73,156.48h46.8v68.2c0,1.11-0.9,2.01-2.01,2.01
						h-44.8L136.73,156.48L136.73,156.48z"/>
				</defs>
				<clipPath id="SVGID_00000145759101459712391420000013509842323516486029_">
					<use xlink:href="#SVGID_00000167359633104198829610000008849594955505042081_"  style="overflow:visible;"/>
				</clipPath>
				<g style="clip-path:url(#SVGID_00000145759101459712391420000013509842323516486029_);">
					<g>
						<defs>
							
								<rect id="SVGID_00000173141840647521437440000004698019858604326323_" x="-721.79" y="-451.3" width="1069.14" height="677.32"/>
						</defs>
						<clipPath id="SVGID_00000095316052904599390170000009842368410983953048_">
							<use xlink:href="#SVGID_00000173141840647521437440000004698019858604326323_"  style="overflow:visible;"/>
						</clipPath>
						
							<rect x="133.38" y="153.14" style="clip-path:url(#SVGID_00000095316052904599390170000009842368410983953048_);fill:#B9C8D4;" width="53.49" height="76.89"/>
					</g>
				</g>
			</g>
		</g>
		<g>
			<g>
				<defs>
					<path id="SVGID_00000165198806999750622200000012486194722694887094_" d="M23.73,156.48h113v70.21h-111
						c-1.11,0-2.01-0.9-2.01-2.01v-68.2H23.73z"/>
				</defs>
				<clipPath id="SVGID_00000143592889063157143410000008981912586474045113_">
					<use xlink:href="#SVGID_00000165198806999750622200000012486194722694887094_"  style="overflow:visible;"/>
				</clipPath>
				<g style="clip-path:url(#SVGID_00000143592889063157143410000008981912586474045113_);">
					<g>
						<defs>
							
								<rect id="SVGID_00000168103974560274881220000007921037725631826091_" x="-721.79" y="-451.3" width="1069.14" height="677.32"/>
						</defs>
						<clipPath id="SVGID_00000067919408570737550300000001835053959326145457_">
							<use xlink:href="#SVGID_00000168103974560274881220000007921037725631826091_"  style="overflow:visible;"/>
						</clipPath>
						
							<rect x="20.38" y="153.14" style="clip-path:url(#SVGID_00000067919408570737550300000001835053959326145457_);fill:#879AAA;" width="119.68" height="76.89"/>
					</g>
				</g>
			</g>
		</g>
		<g>
			<g>
				<defs>
					<path id="SVGID_00000024716642514034934630000003545850876417633175_" d="M162.52,117.94l-25.13,38.54h46.35l23.23-36.36
						c0.6-0.93,0.32-2.17-0.61-2.77c-0.32-0.21-0.7-0.32-1.08-0.32H164.2C163.52,117.03,162.89,117.38,162.52,117.94z"/>
				</defs>
				<clipPath id="SVGID_00000049206696235509057370000001252407947552049853_">
					<use xlink:href="#SVGID_00000024716642514034934630000003545850876417633175_"  style="overflow:visible;"/>
				</clipPath>
				<g style="clip-path:url(#SVGID_00000049206696235509057370000001252407947552049853_);">
					<g>
						<defs>
							
								<rect id="SVGID_00000031198670542551939920000008519302120779669135_" x="-721.79" y="-451.3" width="1069.14" height="677.32"/>
						</defs>
						<clipPath id="SVGID_00000112630796352957378540000014184371118304582787_">
							<use xlink:href="#SVGID_00000031198670542551939920000008519302120779669135_"  style="overflow:visible;"/>
						</clipPath>
						
							<rect x="134.05" y="113.69" style="clip-path:url(#SVGID_00000112630796352957378540000014184371118304582787_);fill:#DDE6ED;" width="76.57" height="46.14"/>
					</g>
				</g>
			</g>
		</g>
		<g>
			<g>
				<defs>
					<path id="SVGID_00000024702790855888848100000015089817745130945965_" d="M137.39,156.48l-27.46-38.61
						c-0.38-0.53-0.99-0.84-1.63-0.84H2.01c-1.11,0-2.01,0.9-2.01,2.01c0,0.39,0.11,0.76,0.32,1.09l23.52,36.35H137.39z"/>
				</defs>
				<clipPath id="SVGID_00000009556446334910451020000007682723895218646457_">
					<use xlink:href="#SVGID_00000024702790855888848100000015089817745130945965_"  style="overflow:visible;"/>
				</clipPath>
				<g style="clip-path:url(#SVGID_00000009556446334910451020000007682723895218646457_);">
					<g>
						<defs>
							
								<rect id="SVGID_00000042733100013667613320000008911413381449734844_" x="-721.79" y="-451.3" width="1069.14" height="677.32"/>
						</defs>
						<clipPath id="SVGID_00000103228818731076874120000007185793856659774370_">
							<use xlink:href="#SVGID_00000042733100013667613320000008911413381449734844_"  style="overflow:visible;"/>
						</clipPath>
						
							<rect x="-3.34" y="113.69" style="clip-path:url(#SVGID_00000103228818731076874120000007185793856659774370_);fill:#B9C8D4;" width="144.08" height="46.14"/>
					</g>
				</g>
			</g>
		</g>
		<g>
			<g>
				<defs>
					<path id="SVGID_00000079468049566719862880000002132209852037368498_" d="M89.92,167.18h32.09c1.11,0,2.01,0.9,2.01,2.01v32.09
						c0,1.11-0.9,2.01-2.01,2.01H89.92c-1.11,0-2.01-0.9-2.01-2.01v-32.09C87.92,168.08,88.81,167.18,89.92,167.18z"/>
				</defs>
				<clipPath id="SVGID_00000160150846242347414180000007206677711727785625_">
					<use xlink:href="#SVGID_00000079468049566719862880000002132209852037368498_"  style="overflow:visible;"/>
				</clipPath>
				<g style="clip-path:url(#SVGID_00000160150846242347414180000007206677711727785625_);">
					<g>
						<defs>
							
								<rect id="SVGID_00000088829198759432626000000005779128681762381981_" x="-721.79" y="-451.3" width="1069.14" height="677.32"/>
						</defs>
						<clipPath id="SVGID_00000065756335394586212220000010295690568092542894_">
							<use xlink:href="#SVGID_00000088829198759432626000000005779128681762381981_"  style="overflow:visible;"/>
						</clipPath>
						<g style="clip-path:url(#SVGID_00000065756335394586212220000010295690568092542894_);enable-background:new    ;">
							<g>
								<g>
									<defs>
										
											<rect id="SVGID_00000044176589250901825910000013744589278089910438_" x="84.57" y="163.84" width="42.12" height="42.12"/>
									</defs>
									<clipPath id="SVGID_00000159456210970721546770000008974285745863337886_">
										<use xlink:href="#SVGID_00000044176589250901825910000013744589278089910438_"  style="overflow:visible;"/>
									</clipPath>
									<g style="clip-path:url(#SVGID_00000159456210970721546770000008974285745863337886_);">
										<g>
											<defs>
												
													<rect id="SVGID_00000093871637794671776850000007383235470256373906_" x="87.25" y="166.51" width="36.77" height="36.77"/>
											</defs>
											<clipPath id="SVGID_00000032621778630999358060000006705770157735865525_">
												<use xlink:href="#SVGID_00000093871637794671776850000007383235470256373906_"  style="overflow:visible;"/>
											</clipPath>
											
												<path style="clip-path:url(#SVGID_00000032621778630999358060000006705770157735865525_);fill:none;stroke:#FFFFFF;stroke-width:4;stroke-linejoin:round;stroke-miterlimit:10;" d="
												M89.92,167.18h32.09c1.11,0,2.01,0.9,2.01,2.01v32.09c0,1.11-0.9,2.01-2.01,2.01H89.92c-1.11,0-2.01-0.9-2.01-2.01
												v-32.09C87.92,168.08,88.81,167.18,89.92,167.18z"/>
										</g>
									</g>
								</g>
							</g>
						</g>
					</g>
				</g>
			</g>
		</g>
		<g>
			<g>
				<g>
					<defs>
						<path id="SVGID_00000023978735493968165640000017000792689305162656_" d="M256.16,124.97h112.88c1.48,0,2.69,1.2,2.69,2.69
							v111.77H256.16V124.97z"/>
					</defs>
					<clipPath id="SVGID_00000057106431783473603250000000303307229630004149_">
						<use xlink:href="#SVGID_00000023978735493968165640000017000792689305162656_"  style="overflow:visible;"/>
					</clipPath>
					<g style="clip-path:url(#SVGID_00000057106431783473603250000000303307229630004149_);">
						<g>
							<defs>
								
									<rect id="SVGID_00000155126999466593862860000014738463933363477906_" x="-491.6" y="-110.94" width="859.26" height="544.36"/>
							</defs>
							<clipPath id="SVGID_00000180355644544924530210000001288064835148140718_">
								<use xlink:href="#SVGID_00000155126999466593862860000014738463933363477906_"  style="overflow:visible;"/>
							</clipPath>
							
								<rect x="253.48" y="122.28" style="clip-path:url(#SVGID_00000180355644544924530210000001288064835148140718_);fill:#005284;" width="120.94" height="119.83"/>
						</g>
					</g>
				</g>
			</g>
			<g>
				<g>
					<defs>
						<path id="SVGID_00000028285741357263156760000002770179975575897989_" d="M256.16,124.97h-28.4c-1.48,0-2.69,1.2-2.69,2.69
							v111.77h31.09V124.97z"/>
					</defs>
					<clipPath id="SVGID_00000124872336681096621720000011841651629855050163_">
						<use xlink:href="#SVGID_00000028285741357263156760000002770179975575897989_"  style="overflow:visible;"/>
					</clipPath>
					<g style="clip-path:url(#SVGID_00000124872336681096621720000011841651629855050163_);">
						<g>
							<defs>
								
									<rect id="SVGID_00000175292526357401897570000010734348055147034290_" x="-491.6" y="-110.94" width="859.26" height="544.36"/>
							</defs>
							<clipPath id="SVGID_00000001665214847649059690000012910873371312731270_">
								<use xlink:href="#SVGID_00000175292526357401897570000010734348055147034290_"  style="overflow:visible;"/>
							</clipPath>
							
								<rect x="222.39" y="122.28" style="clip-path:url(#SVGID_00000001665214847649059690000012910873371312731270_);fill:#0064B0;" width="36.46" height="119.83"/>
						</g>
					</g>
				</g>
			</g>
			<g>
				<g>
					<path id="SVGID_00000048466884423848668590000014388666504408865459_" class="st36" d="M256.84,124.97l14.24,30.22
						c0.27,0.57,0.84,0.93,1.47,0.92l110.85-0.63c0.89-0.01,1.61-0.73,1.6-1.62c0-0.24-0.05-0.47-0.15-0.68l-12.92-27.29
						c-0.27-0.56-0.83-0.92-1.46-0.92C370.47,124.97,256.84,124.97,256.84,124.97z"/>
				</g>
				<g>
					<defs>
						<path id="SVGID_00000070116305271960829470000016917457916852429971_" d="M256.84,124.97l14.24,30.22
							c0.27,0.57,0.84,0.93,1.47,0.92l110.85-0.63c0.89-0.01,1.61-0.73,1.6-1.62c0-0.24-0.05-0.47-0.15-0.68l-12.92-27.29
							c-0.27-0.56-0.83-0.92-1.46-0.92C370.47,124.97,256.84,124.97,256.84,124.97z"/>
					</defs>
					<clipPath id="SVGID_00000103255237314743227970000018268120933437428626_">
						<use xlink:href="#SVGID_00000070116305271960829470000016917457916852429971_"  style="overflow:visible;"/>
					</clipPath>
					<g style="clip-path:url(#SVGID_00000103255237314743227970000018268120933437428626_);">
						<g>
							
								<rect id="SVGID_00000125598650924109435080000016822333826162064563_" x="-491.6" y="-110.94" class="st38" width="859.26" height="544.36"/>
						</g>
						<g>
							<defs>
								
									<rect id="SVGID_00000016077707171509780300000006427425813785319569_" x="-491.6" y="-110.94" width="859.26" height="544.36"/>
							</defs>
							<clipPath id="SVGID_00000019674781560336590800000013723607757400534423_">
								<use xlink:href="#SVGID_00000016077707171509780300000006427425813785319569_"  style="overflow:visible;"/>
							</clipPath>
							
								<rect x="254.15" y="122.28" style="clip-path:url(#SVGID_00000019674781560336590800000013723607757400534423_);fill:#0064B0;" width="133.53" height="36.52"/>
						</g>
					</g>
				</g>
			</g>
			<g>
				<g>
					<defs>
						<path id="SVGID_00000042715988875051168750000011405294252358401174_" d="M256.84,124.97l-15.17,29.5
							c-0.28,0.54-0.83,0.87-1.43,0.87l-27.42,0.1c-0.89,0-1.61-0.72-1.62-1.61c0-0.25,0.06-0.5,0.17-0.73l13.59-27.24
							c0.27-0.55,0.83-0.89,1.44-0.89C226.4,124.97,256.84,124.97,256.84,124.97z"/>
					</defs>
					<clipPath id="SVGID_00000145055392786389218250000016840786459623180427_">
						<use xlink:href="#SVGID_00000042715988875051168750000011405294252358401174_"  style="overflow:visible;"/>
					</clipPath>
					<g style="clip-path:url(#SVGID_00000145055392786389218250000016840786459623180427_);">
						<g>
							<defs>
								
									<rect id="SVGID_00000039135520836532323430000011998494416625335692_" x="-491.6" y="-110.94" width="859.26" height="544.36"/>
							</defs>
							<clipPath id="SVGID_00000027581231829521213480000017647326453578359954_">
								<use xlink:href="#SVGID_00000039135520836532323430000011998494416625335692_"  style="overflow:visible;"/>
							</clipPath>
							
								<rect x="208.52" y="122.28" style="clip-path:url(#SVGID_00000027581231829521213480000017647326453578359954_);fill:#005284;" width="51.01" height="35.84"/>
						</g>
					</g>
				</g>
			</g>
			<g>
				<g>
					<defs>
						<path id="SVGID_00000153683619300050897550000004694936541604256153_" d="M308.47,195.4h47.46c0.89,0,1.61,0.72,1.61,1.61
							v29.96c0,0.89-0.72,1.61-1.61,1.61h-47.46c-0.89,0-1.61-0.72-1.61-1.61v-29.96C306.85,196.12,307.57,195.4,308.47,195.4z"/>
					</defs>
					<clipPath id="SVGID_00000152264537959437199040000011252524684290970275_">
						<use xlink:href="#SVGID_00000153683619300050897550000004694936541604256153_"  style="overflow:visible;"/>
					</clipPath>
					<g style="clip-path:url(#SVGID_00000152264537959437199040000011252524684290970275_);">
						<g>
							<defs>
								
									<rect id="SVGID_00000074433276568778916700000017863425628949567374_" x="-491.6" y="-110.94" width="859.26" height="544.36"/>
							</defs>
							<clipPath id="SVGID_00000021799724795357413630000012165453043354697904_">
								<use xlink:href="#SVGID_00000074433276568778916700000017863425628949567374_"  style="overflow:visible;"/>
							</clipPath>
							<g style="clip-path:url(#SVGID_00000021799724795357413630000012165453043354697904_);enable-background:new    ;">
								<g>
									<g>
										<defs>
											
												<rect id="SVGID_00000048471761542834919970000015922825636346789279_" x="305.32" y="194.29" width="53.74" height="35.47"/>
										</defs>
										<clipPath id="SVGID_00000103223800016517774720000008605646233196215740_">
											<use xlink:href="#SVGID_00000048471761542834919970000015922825636346789279_"  style="overflow:visible;"/>
										</clipPath>
										<g style="clip-path:url(#SVGID_00000103223800016517774720000008605646233196215740_);">
											<g>
												<defs>
													
														<rect id="SVGID_00000060718358554366009930000006148735424345778828_" x="306.4" y="195.36" width="51.59" height="33.32"/>
												</defs>
												<clipPath id="SVGID_00000045582504689807118310000006843466159076297383_">
													<use xlink:href="#SVGID_00000060718358554366009930000006148735424345778828_"  style="overflow:visible;"/>
												</clipPath>
												
													<path style="clip-path:url(#SVGID_00000045582504689807118310000006843466159076297383_);fill:none;stroke:#161A1D;stroke-width:2;stroke-linejoin:round;stroke-miterlimit:10;" d="
													M308.47,195.4h47.46c0.89,0,1.61,0.72,1.61,1.61v29.96c0,0.89-0.72,1.61-1.61,1.61h-47.46c-0.89,0-1.61-0.72-1.61-1.61
													v-29.96C306.85,196.12,307.57,195.4,308.47,195.4z"/>
											</g>
										</g>
									</g>
								</g>
							</g>
						</g>
					</g>
				</g>
			</g>
			<g>
				<g>
					<defs>
						<path id="SVGID_00000165196181142518828430000007721248491920421789_" d="M307.19,160.18h50.01c0.19,0,0.34,0.15,0.34,0.34
							l0,0c0,0.19-0.15,0.34-0.34,0.34h-50.01c-0.19,0-0.34-0.15-0.34-0.34l0,0C306.85,160.34,307,160.18,307.19,160.18z"/>
					</defs>
					<clipPath id="SVGID_00000020372199031431338620000002957127855084804783_">
						<use xlink:href="#SVGID_00000165196181142518828430000007721248491920421789_"  style="overflow:visible;"/>
					</clipPath>
					<g style="clip-path:url(#SVGID_00000020372199031431338620000002957127855084804783_);">
						<g>
							<defs>
								
									<rect id="SVGID_00000179644181460589520100000000778437263567129997_" x="-491.6" y="-110.94" width="859.26" height="544.36"/>
							</defs>
							<clipPath id="SVGID_00000164493714657097054650000017706192371123087795_">
								<use xlink:href="#SVGID_00000179644181460589520100000000778437263567129997_"  style="overflow:visible;"/>
							</clipPath>
							
								<rect x="304.17" y="157.5" style="clip-path:url(#SVGID_00000164493714657097054650000017706192371123087795_);fill:#161A1D;" width="56.06" height="6.05"/>
						</g>
					</g>
				</g>
			</g>
			<g>
				<g>
					<defs>
						<path id="SVGID_00000170966043564052107490000007592716800195162806_" d="M307.19,164.25h50.01c0.19,0,0.34,0.15,0.34,0.34
							l0,0c0,0.19-0.15,0.34-0.34,0.34h-50.01c-0.19,0-0.34-0.15-0.34-0.34l0,0C306.85,164.4,307,164.25,307.19,164.25z"/>
					</defs>
					<clipPath id="SVGID_00000003097830349919168470000009747591033356603038_">
						<use xlink:href="#SVGID_00000170966043564052107490000007592716800195162806_"  style="overflow:visible;"/>
					</clipPath>
					<g style="clip-path:url(#SVGID_00000003097830349919168470000009747591033356603038_);">
						<g>
							<defs>
								
									<rect id="SVGID_00000064330060636388745200000006393856911771369127_" x="-491.6" y="-110.94" width="859.26" height="544.36"/>
							</defs>
							<clipPath id="SVGID_00000176735248463681282300000015311342930836317346_">
								<use xlink:href="#SVGID_00000064330060636388745200000006393856911771369127_"  style="overflow:visible;"/>
							</clipPath>
							
								<rect x="304.17" y="161.56" style="clip-path:url(#SVGID_00000176735248463681282300000015311342930836317346_);fill:#161A1D;" width="56.06" height="6.05"/>
						</g>
					</g>
				</g>
			</g>
		</g>
		<g>
			<g>
				<g>
					<defs>
						<rect id="SVGID_00000055688884311719540620000016679859962635595648_" x="161.34" y="171.33" width="84.92" height="83.44"/>
					</defs>
					<clipPath id="SVGID_00000126283988070569171600000017400354679891938180_">
						<use xlink:href="#SVGID_00000055688884311719540620000016679859962635595648_"  style="overflow:visible;"/>
					</clipPath>
					
						<rect x="158.87" y="168.86" style="clip-path:url(#SVGID_00000126283988070569171600000017400354679891938180_);fill:#002E56;" width="89.86" height="88.38"/>
				</g>
			</g>
			<g>
				<g>
					<defs>
						<rect id="SVGID_00000112600330225947505490000012991045428587398050_" x="246.26" y="171.33" width="22.71" height="83.44"/>
					</defs>
					<clipPath id="SVGID_00000080896515525805993480000010614570160966468251_">
						<use xlink:href="#SVGID_00000112600330225947505490000012991045428587398050_"  style="overflow:visible;"/>
					</clipPath>
					
						<rect x="243.79" y="168.86" style="clip-path:url(#SVGID_00000080896515525805993480000010614570160966468251_);fill:#00213E;" width="27.65" height="88.38"/>
				</g>
			</g>
			<g>
				<g>
					<defs>
						<path id="SVGID_00000143607244156385744970000007794533896588010127_" d="M245.76,171.33l-10.32,21.86
							c-0.25,0.52-0.77,0.85-1.35,0.85l-80.3-0.46c-0.82,0-1.48-0.67-1.47-1.49c0-0.22,0.05-0.43,0.14-0.63l9.15-19.29
							c0.24-0.52,0.77-0.85,1.34-0.85h82.81V171.33z"/>
					</defs>
					<clipPath id="SVGID_00000128480895633606008800000001673410064313842619_">
						<use xlink:href="#SVGID_00000143607244156385744970000007794533896588010127_"  style="overflow:visible;"/>
					</clipPath>
					<g style="clip-path:url(#SVGID_00000128480895633606008800000001673410064313842619_);">
						<g>
							<defs>
								
									<rect id="SVGID_00000012457284845035964020000002268016936677124262_" x="-419.27" y="-67.13" width="789.45" height="500.14"/>
							</defs>
							<clipPath id="SVGID_00000127025563288585631770000015522682734189963685_">
								<use xlink:href="#SVGID_00000012457284845035964020000002268016936677124262_"  style="overflow:visible;"/>
							</clipPath>
							
								<rect x="149.85" y="168.86" style="clip-path:url(#SVGID_00000127025563288585631770000015522682734189963685_);fill:#00213E;" width="98.38" height="27.64"/>
						</g>
					</g>
				</g>
			</g>
			<g>
				<g>
					<defs>
						<polygon id="SVGID_00000141451314615379779690000010827899667736610186_" points="245.76,171.33 257.18,193.47 279.83,193.55 
							268.72,171.33 						"/>
					</defs>
					<clipPath id="SVGID_00000163768367942605004080000006089610093824529585_">
						<use xlink:href="#SVGID_00000141451314615379779690000010827899667736610186_"  style="overflow:visible;"/>
					</clipPath>
					<g style="clip-path:url(#SVGID_00000163768367942605004080000006089610093824529585_);">
						<g>
							<defs>
								
									<rect id="SVGID_00000106852944284478982400000010494488841150147981_" x="-419.27" y="-67.13" width="789.45" height="500.14"/>
							</defs>
							<clipPath id="SVGID_00000084521660202207475470000008512786858330105731_">
								<use xlink:href="#SVGID_00000106852944284478982400000010494488841150147981_"  style="overflow:visible;"/>
							</clipPath>
							
								<rect x="243.3" y="168.86" style="clip-path:url(#SVGID_00000084521660202207475470000008512786858330105731_);fill:#002E56;" width="39" height="27.15"/>
						</g>
					</g>
				</g>
			</g>
			<g>
				<g>
					<defs>
						<path id="SVGID_00000180343918239828982840000016920451028904599210_" d="M207.75,222.68h-34.07c-0.82,0-1.48,0.66-1.48,1.48
							v21.23c0,0.82,0.66,1.48,1.48,1.48h34.07c0.82,0,1.48-0.66,1.48-1.48v-21.23C209.23,223.34,208.57,222.68,207.75,222.68z"/>
					</defs>
					<clipPath id="SVGID_00000143610506546134324560000005458984153723648160_">
						<use xlink:href="#SVGID_00000180343918239828982840000016920451028904599210_"  style="overflow:visible;"/>
					</clipPath>
					<g style="clip-path:url(#SVGID_00000143610506546134324560000005458984153723648160_);">
						<g>
							<defs>
								
									<rect id="SVGID_00000102529518824694754190000008025430437014743718_" x="-419.27" y="-67.13" width="789.45" height="500.14"/>
							</defs>
							<clipPath id="SVGID_00000158000359226339252090000002196297920001502353_">
								<use xlink:href="#SVGID_00000102529518824694754190000008025430437014743718_"  style="overflow:visible;"/>
							</clipPath>
							
								<rect x="169.73" y="220.21" style="clip-path:url(#SVGID_00000158000359226339252090000002196297920001502353_);fill:#005284;" width="41.97" height="29.13"/>
						</g>
					</g>
				</g>
			</g>
			<g>
				<g>
					<defs>
						<path id="SVGID_00000026860206401323727490000008248388587050950589_" d="M208.98,197h-36.54c-0.14,0-0.25,0.11-0.25,0.25
							s0.11,0.25,0.25,0.25h36.54c0.14,0,0.25-0.11,0.25-0.25S209.12,197,208.98,197z"/>
					</defs>
					<clipPath id="SVGID_00000172412435834057145480000018198544179877383853_">
						<use xlink:href="#SVGID_00000026860206401323727490000008248388587050950589_"  style="overflow:visible;"/>
					</clipPath>
					<g style="clip-path:url(#SVGID_00000172412435834057145480000018198544179877383853_);">
						<g>
							<defs>
								
									<rect id="SVGID_00000127035415844799774380000012772438337472088760_" x="-419.27" y="-67.13" width="789.45" height="500.14"/>
							</defs>
							<clipPath id="SVGID_00000111910734998532853500000005132578783440035763_">
								<use xlink:href="#SVGID_00000127035415844799774380000012772438337472088760_"  style="overflow:visible;"/>
							</clipPath>
							
								<rect x="169.73" y="194.54" style="clip-path:url(#SVGID_00000111910734998532853500000005132578783440035763_);fill:#005284;" width="41.97" height="5.43"/>
						</g>
					</g>
				</g>
			</g>
			<g>
				<g>
					<defs>
						<path id="SVGID_00000093154664313514572300000008911506582679954361_" d="M208.98,199.47h-36.54c-0.14,0-0.25,0.11-0.25,0.25
							s0.11,0.25,0.25,0.25h36.54c0.14,0,0.25-0.11,0.25-0.25C209.23,199.58,209.12,199.47,208.98,199.47z"/>
					</defs>
					<clipPath id="SVGID_00000066499553680186784510000001216448847481964172_">
						<use xlink:href="#SVGID_00000093154664313514572300000008911506582679954361_"  style="overflow:visible;"/>
					</clipPath>
					<g style="clip-path:url(#SVGID_00000066499553680186784510000001216448847481964172_);">
						<g>
							<defs>
								
									<rect id="SVGID_00000075152901560057821880000003930485141017767312_" x="-419.27" y="-67.13" width="789.45" height="500.14"/>
							</defs>
							<clipPath id="SVGID_00000096755567243787137690000014953463488540890800_">
								<use xlink:href="#SVGID_00000075152901560057821880000003930485141017767312_"  style="overflow:visible;"/>
							</clipPath>
							
								<rect x="169.73" y="197" style="clip-path:url(#SVGID_00000096755567243787137690000014953463488540890800_);fill:#005284;" width="41.97" height="5.43"/>
						</g>
					</g>
				</g>
			</g>
		</g>
	</g>
</g>
</svg>
